<svg id="Travelers-amico" xmlns="http://www.w3.org/2000/svg" width="600" height="800" viewBox="0 0 676.521 680.928">
  <g id="freepik--Floor--inject-5" transform="translate(0 289.054)">
    <path id="Path_1" data-name="Path 1" d="M607.04,285.669c-132.533-76.532-346.711-76.516-478.381,0S-2.256,486.247,130.2,562.763s346.726,76.516,478.4,0S739.588,362.185,607.04,285.669Z" transform="translate(-30.38 -228.276)" fill="#f5f5f5"/>
  </g>
  <g id="freepik--Plant--inject-5" transform="translate(39.292 343.891)">
    <path id="Path_2" data-name="Path 2" d="M70.3,281.007c-2.649-2.541-5.683-5.314-5.868-8.979a8.024,8.024,0,0,1,5.283-7.5,12.122,12.122,0,0,1,9.5.724,25.49,25.49,0,0,1,7.7,6.084,61.007,61.007,0,0,1,14.37,53.306,4.5,4.5,0,0,1-1.8,3.2c-1.771.939-3.789-.708-5.006-2.31A36.964,36.964,0,0,1,88.6,313.874c-1.063-3.542-.585-7.47-1.925-10.781C83.328,294.868,76.613,287.075,70.3,281.007Z" transform="translate(-51.278 -263.88)" fill="#407bff"/>
    <path id="Path_3" data-name="Path 3" d="M95.6,321.777h0a.709.709,0,0,1-.708-.709,69.308,69.308,0,0,0-25.952-53.506.708.708,0,1,1,.878-1.109,70.849,70.849,0,0,1,26.491,54.615.708.708,0,0,1-.708.708Z" transform="translate(-49.008 -262.588)" fill="#fff"/>
    <path id="Path_4" data-name="Path 4" d="M93.793,340.458c-4.467,1.432-10.073.493-12.66-3.419-3.08-4.621-1.124-11.69-5.206-15.4-2.279-2.079-5.622-2.295-8.64-2.911s-6.376-2.249-6.838-5.329c-.585-4.051,4.374-7.408,3.681-11.444s-6.161-5.221-7.793-8.9c-1.54-3.358,1.14-7.439,4.621-8.687s7.3-.4,10.781.878,6.792,2.973,10.442,3.419,8.178-.277,10.966,2.341c3.727,3.481,1.54,10.119,4.482,14.339,1.925,2.819,5.575,3.789,8.348,5.776a13.338,13.338,0,0,1,5.529,10.966c-.092,4.621-2.526,7.978-6.022,10.643S98.383,338.979,93.793,340.458Z" transform="translate(-55.891 -253.146)" fill="#407bff"/>
    <path id="Path_5" data-name="Path 5" d="M93.793,340.458c-4.467,1.432-10.073.493-12.66-3.419-3.08-4.621-1.124-11.69-5.206-15.4-2.279-2.079-5.622-2.295-8.64-2.911s-6.376-2.249-6.838-5.329c-.585-4.051,4.374-7.408,3.681-11.444s-6.161-5.221-7.793-8.9c-1.54-3.358,1.14-7.439,4.621-8.687s7.3-.4,10.781.878,6.792,2.973,10.442,3.419,8.178-.277,10.966,2.341c3.727,3.481,1.54,10.119,4.482,14.339,1.925,2.819,5.575,3.789,8.348,5.776a13.338,13.338,0,0,1,5.529,10.966c-.092,4.621-2.526,7.978-6.022,10.643S98.383,338.979,93.793,340.458Z" transform="translate(-55.891 -253.146)" opacity="0.2"/>
    <path id="Path_6" data-name="Path 6" d="M89.261,307.033h0c-.678-.97-1.371-1.925-2.095-2.834A51.349,51.349,0,0,0,61.461,287.01a.714.714,0,0,0-.4,1.371,49.871,49.871,0,0,1,24.951,16.588c.2.246.385.524.57.77-7.994-2.942-16.157-1.263-20.5,2.233a.709.709,0,0,0,.431,1.263.662.662,0,0,0,.447-.154c4.313-3.465,13.2-5.021,21.27-1.109a50.041,50.041,0,0,1,8.563,24.966.693.693,0,0,0,.693.662h0a.709.709,0,0,0,.662-.755,51.242,51.242,0,0,0-8.887-25.813Z" transform="translate(-53.376 -251.402)" fill="#fff"/>
  </g>
  <g id="freepik--Shadows--inject-5" transform="translate(172.348 310.391)">
    <path id="Path_7" data-name="Path 7" d="M286.456,366.8c-33.129-19.129-86.666-19.129-119.6,0s-32.744,50.148.385,69.308,86.681,19.144,119.611,0S319.6,385.946,286.456,366.8Z" transform="translate(-142.281 -182.534)" fill="#e6e6e6"/>
    <path id="Path_8" data-name="Path 8" d="M337.853,251.371c-21.3-12.321-55.708-12.321-76.855,0s-21.039,32.221.246,44.511,55.708,12.322,76.855,0S359.138,263.662,337.853,251.371Z" transform="translate(-86.681 -242.13)" fill="#e6e6e6"/>
    <path id="Path_9" data-name="Path 9" d="M405.751,268.779c-17.327-10-45.343-10-62.562,0s-17.127,26.183.2,36.24,45.343,10.011,62.562,0S423.078,278.791,405.751,268.779Z" transform="translate(-40.698 -231.784)" fill="#e6e6e6"/>
    <path id="Path_10" data-name="Path 10" d="M455.311,427.393l-24.289-14.2a15.4,15.4,0,0,0-2.095-1.017c1.047-13.323-7.254-26.861-24.874-36.964-33.129-19.129-86.681-19.129-119.6,0s-32.744,50.148.385,69.308c20.223,11.675,48.054,16.2,74.144,13.631l17.974,10.519a15.648,15.648,0,0,0,15.648.077l62.67-35.84a3.08,3.08,0,0,0,.031-5.514Z" transform="translate(-78.753 -177.991)" fill="#e6e6e6"/>
  </g>
  <g id="freepik--Trees--inject-5" transform="translate(221.201 0)">
    <path id="Path_11" data-name="Path 11" d="M263.938,89.041l-12.2-5.591V96.11c73.729,82.169,35.7,215.626,24.843,254.33h0c-2.233,4.236-.462,9.041,5.344,12.321,8.348,4.821,21.84,4.821,30.126,0a11.551,11.551,0,0,0,5.96-6.992h.231C330.1,298.136,339.931,161.306,263.938,89.041Z" transform="translate(-132.006 -17.455)" fill="#407bff"/>
    <path id="Path_12" data-name="Path 12" d="M263.938,89.041l-12.2-5.591V96.11c73.729,82.169,35.7,215.626,24.843,254.33h0c-2.233,4.236-.462,9.041,5.344,12.321,8.348,4.821,21.84,4.821,30.126,0a11.551,11.551,0,0,0,5.96-6.992h.231C330.1,298.136,339.931,161.306,263.938,89.041Z" transform="translate(-132.006 -17.455)" opacity="0.3"/>
    <path id="Path_13" data-name="Path 13" d="M174,151.336c7.87-6.315,17.4-11.166,27.723-15.51l8.363-20.484c-.8,6.022-1.633,12.06-2.449,18.1,6.484-2.526,13.23-4.929,20.022-7.408l9.1-16.68q-1.017,7.054-2.018,14.093c21.085-7.84,42.417-17.05,58.927-33.638C246.2,52.148,190.619,73.433,174,151.336Z" transform="translate(-174 -23.81)" fill="#407bff"/>
    <path id="Path_14" data-name="Path 14" d="M332.23,68.739a104.455,104.455,0,0,1,37.719-11.8C320.016,24.72,258.748,39.583,251.74,106.6c15.556,1.232,30.018-6.53,45.312-16.28A92.686,92.686,0,0,0,279.14,77.441a76.887,76.887,0,0,1,23.1,9.58c7.47-4.867,15.2-10.011,23.38-14.663a76.439,76.439,0,0,0-18.036-8.04A41.153,41.153,0,0,1,332.23,68.739Z" transform="translate(-132.006 -40.601)" fill="#407bff"/>
    <path id="Path_15" data-name="Path 15" d="M174,151.336c7.87-6.315,17.4-11.166,27.723-15.51l8.363-20.484c-.8,6.022-1.633,12.06-2.449,18.1,6.484-2.526,13.23-4.929,20.022-7.408l9.1-16.68q-1.017,7.054-2.018,14.093c21.085-7.84,42.417-17.05,58.927-33.638C246.2,52.148,190.619,73.433,174,151.336Z" transform="translate(-174 -23.81)" fill="#fff" opacity="0.4"/>
    <path id="Path_16" data-name="Path 16" d="M332.23,68.739a104.455,104.455,0,0,1,37.719-11.8C320.016,24.72,258.748,39.583,251.74,106.6c15.556,1.232,30.018-6.53,45.312-16.28A92.686,92.686,0,0,0,279.14,77.441a76.887,76.887,0,0,1,23.1,9.58c7.47-4.867,15.2-10.011,23.38-14.663a76.439,76.439,0,0,0-18.036-8.04A41.153,41.153,0,0,1,332.23,68.739Z" transform="translate(-132.006 -40.601)" fill="#fff" opacity="0.4"/>
    <path id="Path_17" data-name="Path 17" d="M274.476,83.45C256.887,85.175,240.7,95.325,229.81,109.2s-16.942,31.219-19.114,48.762-.709,35.424,2.095,52.813c8.178-11.644,16.726-23.288,25.12-34.916l-1.217-31.5q3.2,12.106,6.407,24.242c1.186-1.679,2.4-3.342,3.573-5.021,3.45-4.867,6.9-9.78,10.181-14.786l-2-26.892,6.931,18.944a125.442,125.442,0,0,0,7.1-13.985C274.491,113.668,277.956,97.358,274.476,83.45Z" transform="translate(-154.742 -17.455)" fill="#407bff"/>
    <path id="Path_18" data-name="Path 18" d="M320.925,122.459c15.818,1.54,31.9,3.327,47.253,11.967C344.089,85.911,302.658,54.337,251.74,88.467c10.489,15.4,22.24,23.318,34.716,27.723a61.272,61.272,0,0,1-3.835-19.653c3.65,7.193,7.085,14.478,10.643,21.717a150.543,150.543,0,0,0,21.424,3.558,72.3,72.3,0,0,1-4.544-19.437,136.11,136.11,0,0,0,10.781,20.084Z" transform="translate(-132.006 -22.472)" fill="#407bff"/>
    <path id="Path_19" data-name="Path 19" d="M274.476,83.45C256.887,85.175,240.7,95.325,229.81,109.2s-16.942,31.219-19.114,48.762-.709,35.424,2.095,52.813c8.178-11.644,16.726-23.288,25.12-34.916l-1.217-31.5q3.2,12.106,6.407,24.242c1.186-1.679,2.4-3.342,3.573-5.021,3.45-4.867,6.9-9.78,10.181-14.786l-2-26.892,6.931,18.944a125.442,125.442,0,0,0,7.1-13.985C274.491,113.668,277.956,97.358,274.476,83.45Z" transform="translate(-154.742 -17.455)" fill="#fff" opacity="0.2"/>
    <path id="Path_20" data-name="Path 20" d="M320.925,122.459c15.818,1.54,31.9,3.327,47.253,11.967C344.089,85.911,302.658,54.337,251.74,88.467c10.489,15.4,22.24,23.318,34.716,27.723a61.272,61.272,0,0,1-3.835-19.653c3.65,7.193,7.085,14.478,10.643,21.717a150.543,150.543,0,0,0,21.424,3.558,72.3,72.3,0,0,1-4.544-19.437,136.11,136.11,0,0,0,10.781,20.084Z" transform="translate(-132.006 -22.472)" fill="#fff" opacity="0.2"/>
    <path id="Path_21" data-name="Path 21" d="M429.947,146.593l-4.482-7.393-7.223,3.311c-18.482,12.4-74.822,153.664-74.822,204.844h0c0,2.665,1.787,5.329,5.3,7.347,7.023,4.066,18.374,4.066,25.367,0,3.85-2.233,5.545-5.237,5.144-8.163C379.276,325.547,391.72,227.252,429.947,146.593Z" transform="translate(-82.482 12.66)" fill="#407bff"/>
    <path id="Path_22" data-name="Path 22" d="M429.947,146.593l-4.482-7.393-7.223,3.311c-18.482,12.4-74.822,153.664-74.822,204.844h0c0,2.665,1.787,5.329,5.3,7.347,7.023,4.066,18.374,4.066,25.367,0,3.85-2.233,5.545-5.237,5.144-8.163C379.276,325.547,391.72,227.252,429.947,146.593Z" transform="translate(-82.482 12.66)" opacity="0.3"/>
    <path id="Path_23" data-name="Path 23" d="M508.733,179.886a99.08,99.08,0,0,0-26.183-8.533l-10.535-16c1.679,4.99,3.4,9.98,5.113,14.971-5.93-1.063-12.06-1.971-18.282-2.942l-10.519-12.63,4.066,11.613c-19.222-3.08-38.874-7.362-55.693-18.7C430.753,107.76,481.549,116.554,508.733,179.886Z" transform="translate(-53.701 4.195)" fill="#407bff"/>
    <path id="Path_24" data-name="Path 24" d="M360.107,136.71A90.332,90.332,0,0,0,326.1,133c36.964-35.732,91.548-33.36,108.721,22.379-13.015,3.65-26.584-.524-41.215-6.161a80.091,80.091,0,0,1,13.061-13.939,66.628,66.628,0,0,0-17.959,12c-7.162-2.88-14.586-5.96-22.317-8.533a65.853,65.853,0,0,1,13.862-9.873A35.578,35.578,0,0,0,360.107,136.71Z" transform="translate(-91.838 -3.517)" fill="#407bff"/>
    <path id="Path_25" data-name="Path 25" d="M508.733,179.886a99.08,99.08,0,0,0-26.183-8.533l-10.535-16c1.679,4.99,3.4,9.98,5.113,14.971-5.93-1.063-12.06-1.971-18.282-2.942l-10.519-12.63,4.066,11.613c-19.222-3.08-38.874-7.362-55.693-18.7C430.753,107.76,481.549,116.554,508.733,179.886Z" transform="translate(-53.701 4.195)" fill="#fff" opacity="0.4"/>
    <path id="Path_26" data-name="Path 26" d="M360.107,136.71A90.332,90.332,0,0,0,326.1,133c36.964-35.732,91.548-33.36,108.721,22.379-13.015,3.65-26.584-.524-41.215-6.161a80.091,80.091,0,0,1,13.061-13.939,66.628,66.628,0,0,0-17.959,12c-7.162-2.88-14.586-5.96-22.317-8.533a65.853,65.853,0,0,1,13.862-9.873A35.578,35.578,0,0,0,360.107,136.71Z" transform="translate(-91.838 -3.517)" fill="#fff" opacity="0.4"/>
    <path id="Path_27" data-name="Path 27" d="M396.706,139.284c15.232-1.54,30.681,4.436,42.309,14.4s19.607,23.673,24.4,38.212,6.53,29.926,7.069,45.22c-8.964-8.517-18.143-16.942-27.215-25.444L439.015,184.7l-1.386,21.67-3.881-3.666c-3.743-3.558-7.5-7.146-11.12-10.781l-2.819-23.18q-1.34,8.64-2.711,17.25a104.011,104.011,0,0,1-8.379-10.689C401.8,164.959,396.09,151.683,396.706,139.284Z" transform="translate(-53.723 12.576)" fill="#407bff"/>
    <path id="Path_28" data-name="Path 28" d="M396.706,139.284c15.232-1.54,30.681,4.436,42.309,14.4s19.607,23.673,24.4,38.212,6.53,29.926,7.069,45.22c-8.964-8.517-18.143-16.942-27.215-25.444L439.015,184.7l-1.386,21.67-3.881-3.666c-3.743-3.558-7.5-7.146-11.12-10.781l-2.819-23.18q-1.34,8.64-2.711,17.25a104.011,104.011,0,0,1-8.379-10.689C401.8,164.959,396.09,151.683,396.706,139.284Z" transform="translate(-53.723 12.576)" fill="#fff" opacity="0.2"/>
    <path id="Path_29" data-name="Path 29" d="M375.6,181.811c-13.169,4.02-26.537,8.163-38.135,18.066,12.321-45.235,42.247-78.95,91.21-58.527-6.315,14.863-14.986,23.549-24.828,29.371a53.276,53.276,0,0,0,0-17.342c-1.894,6.715-3.6,13.492-5.406,20.238a130.4,130.4,0,0,1-17.6,6.607,61.883,61.883,0,0,0,.6-17.281,116.784,116.784,0,0,1-5.837,18.867Z" transform="translate(-85.696 10.526)" fill="#407bff"/>
    <path id="Path_30" data-name="Path 30" d="M375.6,181.811c-13.169,4.02-26.537,8.163-38.135,18.066,12.321-45.235,42.247-78.95,91.21-58.527-6.315,14.863-14.986,23.549-24.828,29.371a53.276,53.276,0,0,0,0-17.342c-1.894,6.715-3.6,13.492-5.406,20.238a130.4,130.4,0,0,1-17.6,6.607,61.883,61.883,0,0,0,.6-17.281,116.784,116.784,0,0,1-5.837,18.867Z" transform="translate(-85.696 10.526)" fill="#fff" opacity="0.2"/>
  </g>
  <g id="freepik--Clouds--inject-5" transform="translate(68.923 20.205)">
    <path id="Path_31" data-name="Path 31" d="M102.961,58.926c6.561-3.789,12.106-1.925,13.862,3.958A19.36,19.36,0,0,1,123.908,55c5.144-2.973,9.241-.585,9.334,5.314v2.711l6.9-3.974c3.6-2.079,6.53-.416,6.53,3.727a14.293,14.293,0,0,1-6.484,11.243L81.66,107.781c-3.589,2.079-6.53.416-6.53-3.727a14.308,14.308,0,0,1,6.5-11.259l6.9-3.989v-4.99C88.56,74.667,94.952,63.531,102.961,58.926Z" transform="translate(-75.13 -53.72)" fill="#fff"/>
    <path id="Path_32" data-name="Path 32" d="M137.353,72.774c4.713-2.726,8.687-1.386,9.95,2.834a14.047,14.047,0,0,1,5.083-5.668c3.7-2.125,6.7-.416,6.715,3.82v1.956l4.944-2.865c2.587-1.54,4.7-.293,4.7,2.68a10.242,10.242,0,0,1-4.621,8.071l-42,24.227c-2.572,1.54-4.621.293-4.621-2.68a10.35,10.35,0,0,1,4.621-8.071l4.959-2.865V90.64a22.733,22.733,0,0,1,10.273-17.866Z" transform="translate(-52.242 -45.451)" fill="#fff"/>
  </g>
  <g id="freepik--speech-bubble--inject-5" transform="translate(146.102 134.893)">
    <path id="Path_33" data-name="Path 33" d="M125.24,182.5a4.22,4.22,0,0,0,2.11,3.65l43.125,24.859a1.4,1.4,0,0,0,1.278,0h.154l6.253-3.465h0a1.371,1.371,0,0,0,.693-1.186V194.61l8.64,1.047a.893.893,0,0,0,.816-.262l5.945-3.281c1.032-.323.893-2.418-.447-3.789l-14.894-15.4v-16a4.389,4.389,0,0,0-.37-1.725,4.25,4.25,0,0,0-1.725-1.925L133.7,128.413a1.371,1.371,0,0,0-1.355,0h0l-6.3,3.481h0a1.417,1.417,0,0,0-.693,1.217Zm46.437-24.843-.139-.154Zm.37.508a.553.553,0,0,1-.108-.154.554.554,0,0,0,.108.154Zm.524,1.448v-.185c0-.062.046.123.046.185Zm-1.494-2.48.154.139Z" transform="translate(-125.24 -128.157)" fill="#407bff"/>
    <path id="Path_34" data-name="Path 34" d="M156.168,186.8a1.371,1.371,0,0,1-.678,1.186l6.253-3.465h0a1.371,1.371,0,0,0,.693-1.186V171.58l-6.284-.77Z" transform="translate(-108.899 -105.158)" opacity="0.1"/>
    <path id="Path_35" data-name="Path 35" d="M176.56,153.221l-43.125-24.859a1.371,1.371,0,0,0-1.355,0h0l-6.3,3.481h0a1.386,1.386,0,0,1,1.4,0l43.125,24.843a4.281,4.281,0,0,1,1.787,2.048l6.253-3.619A4.251,4.251,0,0,0,176.56,153.221Z" transform="translate(-124.948 -128.184)" fill="#fff" opacity="0.2"/>
    <path id="Path_36" data-name="Path 36" d="M162.387,163.418v-16a4.389,4.389,0,0,0-.37-1.725l-6.207,3.558a4.1,4.1,0,0,1,.323,1.617v16l6.3-3.512Z" transform="translate(-108.727 -118.727)" fill="#fff" opacity="0.1"/>
    <path id="Path_37" data-name="Path 37" d="M177.178,172.612l-14.894-15.4-6.284,3.5h0l14.894,15.4c1.155,1.2,1.417,2.911.8,3.573l5.945-3.281C178.656,176.077,178.517,173.983,177.178,172.612Z" transform="translate(-108.624 -112.504)" fill="#fff" opacity="0.05"/>
    <path id="Path_38" data-name="Path 38" d="M143.391,144.693a20.654,20.654,0,0,1,9.38,16.249c0,13.708-9.01,18.359-9.472,18.605-.477-.785-9.4-15.771-9.349-29.464C134.027,144.107,138.2,141.689,143.391,144.693Zm0,16.372c2.665,1.54,4.836.293,4.836-2.772a10.6,10.6,0,0,0-4.805-8.332c-2.664-1.54-4.836-.293-4.836,2.772a10.6,10.6,0,0,0,4.805,8.332" transform="translate(-120.535 -119.963)" fill="#fff"/>
  </g>
  <g id="freepik--character-2--inject-5" transform="translate(338.194 195.929)">
    <path id="Path_39" data-name="Path 39" d="M342.145,182.5c-8.64-5.329-18.066-5.714-21.054-.862l-4.62,6.746,8.379,6.376a30.356,30.356,0,0,0,6.469,5.314c.632.385,1.263.739,1.91,1.078L347.6,212.1l4.775-11.182C355.36,196.064,350.785,187.809,342.145,182.5Z" transform="translate(-214.034 -162.184)" fill="#407bff"/>
    <path id="Path_40" data-name="Path 40" d="M342.145,182.5c-8.64-5.329-18.066-5.714-21.054-.862l-4.62,6.746,8.379,6.376a30.356,30.356,0,0,0,6.469,5.314c.632.385,1.263.739,1.91,1.078L347.6,212.1l4.775-11.182C355.36,196.064,350.785,187.809,342.145,182.5Z" transform="translate(-214.034 -162.184)" fill="#407bff" opacity="0.2"/>
    <ellipse id="Ellipse_1" data-name="Ellipse 1" cx="27.939" cy="49.748" rx="27.939" ry="49.748" transform="matrix(0.525, -0.851, 0.851, 0.525, 53.485, 47.572)" fill="#407bff"/>
    <ellipse id="Ellipse_2" data-name="Ellipse 2" cx="27.939" cy="49.748" rx="27.939" ry="49.748" transform="matrix(0.525, -0.851, 0.851, 0.525, 53.485, 47.572)" fill="#fff" opacity="0.2"/>
    <path id="Path_41" data-name="Path 41" d="M356.728,401.54a4.621,4.621,0,0,0,4.1,0,10.674,10.674,0,0,0,5.437-6.161,34.854,34.854,0,0,0,1.663-9.241c.216-2.11.416-4.22.632-6.315a24.9,24.9,0,0,0,.216-6.007,6.439,6.439,0,0,0-2.356-4.22L354.495,351.53l-13.584,7.7,13.4,14.909a9.349,9.349,0,0,1,2.4,6.33l-.077,14.231a9.765,9.765,0,0,1-1.232,4.621,2.911,2.911,0,0,0,1.325,2.218Z" transform="translate(-200.832 -68.572)" fill="#ffa8a7"/>
    <path id="Path_42" data-name="Path 42" d="M369.863,368.559a7.3,7.3,0,0,0-7.085-5.329,6.438,6.438,0,0,1,2.464,4.266,18.791,18.791,0,0,1,0,5.006c-.262,2.757-.539,5.514-.816,8.271a31.944,31.944,0,0,1-1.54,8.271,10.673,10.673,0,0,1-5.437,6.161,4.62,4.62,0,0,1-4.1,0,2.911,2.911,0,0,1-1.386-2.11,10.088,10.088,0,0,1-1.987,2.587c-.493.477-.955.955-1.325,1.386a4.389,4.389,0,0,0-.847,4.775c.863,1.617,2.865,2.187,4.621,2.48a20.022,20.022,0,0,0,8.071-.169,10.288,10.288,0,0,0,6.422-4.621,16.249,16.249,0,0,0,1.54-6.684l1.4-16.11c.139-1.663.262-3.311.308-4.975A12,12,0,0,0,369.863,368.559Z" transform="translate(-197.302 -62.252)" fill="#37474f"/>
    <path id="Path_43" data-name="Path 43" d="M299.089,417.857c7.239.354,15.279-6.992,18.852-9.518s5.945-2.449,7.7-10.489l6.9-28.663-16.619-3.727-3.542,29.987a9.457,9.457,0,0,1-3.08,5.9l-10.242,9.133a29.269,29.269,0,0,1-5.545,4.035l-.354.2C292.928,416.147,294.13,417.626,299.089,417.857Z" transform="translate(-226.64 -61.047)" fill="#ffa8a7"/>
    <path id="Path_44" data-name="Path 44" d="M328.3,386.49c-1.694,8.04-4.051,7.963-7.7,10.489s-11.613,9.873-18.852,9.518c-4.913-.231-6.161-1.71-5.991-3.08l-5.129,2.9a4.99,4.99,0,0,0-1.109,7.947h0a11.274,11.274,0,0,0,6.638,2.51,20.947,20.947,0,0,0,13.107-3.311c3.08-2.018,5.652-4.882,9.056-6.315A54.592,54.592,0,0,1,324,405.511a9.579,9.579,0,0,0,5.036-2.942,9.857,9.857,0,0,0,1.54-6.669,24.642,24.642,0,0,0-2.279-9.411Z" transform="translate(-229.403 -49.687)" fill="#37474f"/>
    <path id="Path_45" data-name="Path 45" d="M331,279.46a60.73,60.73,0,0,0,30.265-10.2,79.9,79.9,0,0,0-8.64-12.414l-49.948,4.5q-.739,6.161-1.124,12.321A60.544,60.544,0,0,0,331,279.46Z" transform="translate(-222.093 -119.716)" fill="#ffa8a7"/>
    <path id="Path_46" data-name="Path 46" d="M347.552,357.752c11.182-34.531,29.787-64.025,13.862-92.842a60.067,60.067,0,0,1-59.713,4.343c-2.464,38.227,4.852,71.264,12.737,86.25-3,18.051-4.621,69.493-4.621,69.493,8.332,7.9,19.052,2.849,19.052,2.849l12.06-39.706s22.256,20.9,24.474,23.7a14.817,14.817,0,0,0,13.615-10.5C360.951,369.9,358.287,365.438,347.552,357.752Z" transform="translate(-222.274 -115.363)" fill="#37474f"/>
    <path id="Path_47" data-name="Path 47" d="M304.31,218.125a16.572,16.572,0,0,1-2-20.854,5.622,5.622,0,0,1,1-10.781,16.126,16.126,0,0,1,6.053.863,29.463,29.463,0,0,0,10.4,0c3.45-.508,6.869-1.248,10.35-1.54a21.054,21.054,0,0,1,10.242,1.463,11.459,11.459,0,0,1,6.623,7.609c2.68-.724,5.868,1,7.593,3.173a13.492,13.492,0,0,1,2.5,7.793c.108,2.772-.277,5.529-.416,8.3a18.913,18.913,0,0,0,1.047,8.194c1.248,2.988,3.727,5.437,4.513,8.579a8.625,8.625,0,0,1-10.566,10.442,22.583,22.583,0,0,0,.8-6.731c-.262,3.08-3.3,5.437-6.161,6.453a24,24,0,0,1-9.087.8l-10.781-.416-12.552-.493a17.173,17.173,0,0,1-6.561-1.14,11.151,11.151,0,0,1-5.837-9.642C301.214,226.319,302.754,221.76,304.31,218.125Z" transform="translate(-223.636 -158.154)" fill="#263238"/>
    <path id="Path_48" data-name="Path 48" d="M343.972,224.19h-5.391a17.127,17.127,0,0,0-15.587,10.027l-13.738,30.156c-12.491,3.527-21.116,10.181-32.575,11.028-2.218,0-10.057-3.9-13.138-5.483a1.124,1.124,0,0,0-1.54.739h0a2.865,2.865,0,0,0,1.047,3l3.65,2.742c-7.362,1.54-13.122-2.7-15.664.6s-.755,8.486,7.177,11.228,18,1.325,28-.939,32.251-8.871,32.251-8.871C337.812,259.66,343.972,224.19,343.972,224.19Z" transform="translate(-249.961 -137.359)" fill="#ffa8a7"/>
    <path id="Path_49" data-name="Path 49" d="M312.928,341.6c3.311-28.755,7.331-48.254,7.331-48.254-10.966-5.591-14.539-11.582-14.539-11.582,1.894,9.672,10.412,14.94,10.412,14.94C312.974,313.211,312.928,341.6,312.928,341.6Z" transform="translate(-219.841 -106.26)" opacity="0.2"/>
    <path id="Path_50" data-name="Path 50" d="M327,355.578a60.376,60.376,0,0,0,1.371-14.586l5.206-15.8-3.219,16c.57,5.252,1.109,14.247,0,17.65Z" transform="translate(-208.345 -82.8)" opacity="0.2"/>
    <path id="Path_51" data-name="Path 51" d="M309.894,241.1a8.348,8.348,0,0,0,5.344,1.417,29.972,29.972,0,0,0,23.842-11.829l-5.3-.462V213.19l-18.482,7.1v9.842h-4.713a13.724,13.724,0,0,0-2.249,4A6.484,6.484,0,0,0,309.894,241.1Z" transform="translate(-218.654 -143.301)" fill="#ffa8a7"/>
    <path id="Path_52" data-name="Path 52" d="M329.877,213.51c-2.988,6.746-8.948,12.537-17.127,13.492v-6.885Z" transform="translate(-216.043 -143.128)" opacity="0.2"/>
    <path id="Path_53" data-name="Path 53" d="M333.691,212.141a16.947,16.947,0,0,0-.2,4.313,4.99,4.99,0,0,0,1.432,2.88,3.2,3.2,0,0,0,2.9.863,5.622,5.622,0,1,1,10.92-2.68,7.038,7.038,0,0,1-1.171,5.868,13.153,13.153,0,0,1-4.621,3.912,4.774,4.774,0,0,1-5.683-2.233c-5.468,6.946-15,12.152-23.95,11.4a12.691,12.691,0,0,1-6.792-2.387c-3.388-2.618-3.635-6.577-4.066-10.473a55.845,55.845,0,0,1,.108-14.863,29.356,29.356,0,0,1,9.4-17.9C314.947,205.61,328.5,211.109,333.691,212.141Z" transform="translate(-221.844 -155.374)" fill="#ffa8a7"/>
    <path id="Path_54" data-name="Path 54" d="M312.635,203.58l-6.115,7.547,5.683,1.956Z" transform="translate(-219.408 -148.492)" fill="#f28f8f"/>
    <path id="Path_55" data-name="Path 55" d="M315.285,212.14l-4.775,1.54a2.972,2.972,0,0,0,3.234,1.448A2.649,2.649,0,0,0,315.285,212.14Z" transform="translate(-217.253 -143.868)" fill="#f28f8f"/>
    <path id="Path_56" data-name="Path 56" d="M315.285,212.14l-4.775,1.54a2.972,2.972,0,0,0,3.234,1.448A2.649,2.649,0,0,0,315.285,212.14Z" transform="translate(-217.253 -143.868)" opacity="0.3"/>
    <path id="Path_57" data-name="Path 57" d="M311.59,214.745a2.757,2.757,0,0,0,1.54.077,2.4,2.4,0,0,0,1.54-2.172,2.742,2.742,0,0,0-3.08,2.095Z" transform="translate(-216.67 -143.609)" fill="#f28f8f"/>
    <path id="Path_58" data-name="Path 58" d="M317.2,205.222a1.71,1.71,0,1,1-1.633-1.771A1.71,1.71,0,0,1,317.2,205.222Z" transform="translate(-215.486 -148.563)" fill="#263238"/>
    <path id="Path_59" data-name="Path 59" d="M307.929,204.442a1.71,1.71,0,1,1-1.633-1.771,1.71,1.71,0,0,1,1.633,1.771Z" transform="translate(-220.494 -148.984)" fill="#263238"/>
    <path id="Path_60" data-name="Path 60" d="M307.247,199.569l-3.881,2.48a2.434,2.434,0,0,1,.862-2.634,2.865,2.865,0,0,1,3.019.154Z" transform="translate(-221.167 -150.935)" fill="#263238"/>
    <path id="Path_61" data-name="Path 61" d="M315.3,199.819l3.635,2.772a2.4,2.4,0,0,0-.616-2.7,2.849,2.849,0,0,0-3.019-.077Z" transform="translate(-214.666 -150.737)" fill="#263238"/>
    <path id="Path_62" data-name="Path 62" d="M358.643,276.741c-3-5.853-2.31-13.353,2.433-21.778,2.341-4.174.231-28.848.231-28.848l-15.741-1.371a29.972,29.972,0,0,1-23.842,11.829,8.348,8.348,0,0,1-5.344-1.417,6.484,6.484,0,0,1-1.54-6.962,13.726,13.726,0,0,1,2.249-4h-4.62c-5.5,4.9-15.895,24.643-16.542,35.332-.323,5.329,3.8,7.963,6.638,9.611a60.19,60.19,0,0,1,.678,9.241,37.146,37.146,0,0,0,13.785,4.1C332.66,284.457,344.35,283.133,358.643,276.741Z" transform="translate(-225.141 -137.359)" fill="#407bff"/>
    <path id="Path_63" data-name="Path 63" d="M358.643,276.741c-3-5.853-2.31-13.353,2.433-21.778,2.341-4.174.231-28.848.231-28.848l-15.741-1.371a29.972,29.972,0,0,1-23.842,11.829,8.348,8.348,0,0,1-5.344-1.417,6.484,6.484,0,0,1-1.54-6.962,13.726,13.726,0,0,1,2.249-4h-4.62c-5.5,4.9-15.895,24.643-16.542,35.332-.323,5.329,3.8,7.963,6.638,9.611a60.19,60.19,0,0,1,.678,9.241,37.146,37.146,0,0,0,13.785,4.1C332.66,284.457,344.35,283.133,358.643,276.741Z" transform="translate(-225.141 -137.359)" opacity="0.2"/>
    <path id="Path_64" data-name="Path 64" d="M334.728,347.7H330V303.482a10.181,10.181,0,0,1,5.083-8.794l19.56-11.274a5.36,5.36,0,0,1,5.468,0,5.421,5.421,0,0,1,2.742,4.728v43.325h-4.62V288.141a.785.785,0,0,0-.385-.678.77.77,0,0,0-.785,0l-19.545,11.29a5.483,5.483,0,0,0-2.726,4.728Z" transform="translate(-206.725 -105.773)" fill="#e0e0e0"/>
    <g id="Group_1" data-name="Group 1" transform="translate(123.275 176.891)" opacity="0.1">
      <path id="Path_65" data-name="Path 65" d="M334.728,347.7H330V303.482a10.181,10.181,0,0,1,5.083-8.794l19.56-11.274a5.36,5.36,0,0,1,5.468,0,5.421,5.421,0,0,1,2.742,4.728v43.325h-4.62V288.141a.785.785,0,0,0-.385-.678.77.77,0,0,0-.785,0l-19.545,11.29a5.483,5.483,0,0,0-2.726,4.728Z" transform="translate(-330 -282.663)"/>
    </g>
    <path id="Path_66" data-name="Path 66" d="M340.732,427.992a13.862,13.862,0,0,1,6.3-10.92,4.482,4.482,0,0,1,4.482-.447l-5.637-3.25a4.312,4.312,0,0,0-4.713.308,13.861,13.861,0,0,0-6.315,10.92,4.359,4.359,0,0,0,1.894,4.081h0l5.545,3.08A4.621,4.621,0,0,1,340.732,427.992Z" transform="translate(-204.119 -35.465)" fill="#37474f"/>
    <path id="Path_67" data-name="Path 67" d="M345.66,415.29Z" transform="translate(-198.266 -34.13)" fill="#37474f"/>
    <path id="Path_68" data-name="Path 68" d="M349.446,415.431h0a4.482,4.482,0,0,0-4.482.447,13.861,13.861,0,0,0-6.3,10.92,4.621,4.621,0,0,0,1.54,3.82,4.251,4.251,0,0,0,4.867-.2,13.862,13.862,0,0,0,6.315-10.92,4.42,4.42,0,0,0-1.941-4.066Z" transform="translate(-202.052 -34.271)" fill="#455a64"/>
    <path id="Path_69" data-name="Path 69" d="M344.31,417.214c2.449-1.417,4.436-.277,4.451,2.541a9.765,9.765,0,0,1-4.42,7.7c-2.464,1.417-4.451.277-4.451-2.526a9.749,9.749,0,0,1,4.42-7.716Z" transform="translate(-201.383 -33.42)" fill="#455a64"/>
    <path id="Path_70" data-name="Path 70" d="M347.048,416.42a3.79,3.79,0,0,1,.8,2.557,10.4,10.4,0,0,1-4.728,8.194,3.65,3.65,0,0,1-2.911.539c.847.97,2.31,1.094,3.958.139a10.443,10.443,0,0,0,4.728-8.194A3.08,3.08,0,0,0,347.048,416.42Z" transform="translate(-201.21 -33.519)" fill="#e0e0e0"/>
    <path id="Path_71" data-name="Path 71" d="M343.409,427.207a10.4,10.4,0,0,0,4.728-8.194,3.788,3.788,0,0,0-.8-2.557,3.635,3.635,0,0,0-2.911.524,10.442,10.442,0,0,0-4.744,8.194,3.912,3.912,0,0,0,.816,2.572A3.65,3.65,0,0,0,343.409,427.207Z" transform="translate(-201.497 -33.556)" fill="#ebebeb"/>
    <path id="Path_72" data-name="Path 72" d="M341.96,422.769a4.621,4.621,0,0,1,2.11-3.65,1.54,1.54,0,0,1,1.54-.154l-1.063-.6a1.432,1.432,0,0,0-1.54.092,4.7,4.7,0,0,0-2.125,3.666,1.54,1.54,0,0,0,.647,1.371h0l1,.554A1.54,1.54,0,0,1,341.96,422.769Z" transform="translate(-200.849 -32.567)" fill="#e0e0e0"/>
    <path id="Path_73" data-name="Path 73" d="M345.2,418.739h0a1.54,1.54,0,0,0-1.54.154,4.621,4.621,0,0,0-2.11,3.65,1.54,1.54,0,0,0,.493,1.278,1.432,1.432,0,0,0,1.633,0,4.621,4.621,0,0,0,2.11-3.666A1.54,1.54,0,0,0,345.2,418.739Z" transform="translate(-200.488 -32.342)" fill="#fafafa"/>
    <path id="Path_74" data-name="Path 74" d="M325.568,418.584a13.862,13.862,0,0,1,6.3-10.92,4.482,4.482,0,0,1,4.482-.462l-5.714-3.234a4.313,4.313,0,0,0-4.713.293,13.862,13.862,0,0,0-6.315,10.935,4.405,4.405,0,0,0,1.894,4.081h0l5.56,3.08A4.713,4.713,0,0,1,325.568,418.584Z" transform="translate(-212.351 -40.551)" fill="#37474f"/>
    <path id="Path_75" data-name="Path 75" d="M330.47,405.87Z" transform="translate(-206.471 -39.218)" fill="#37474f"/>
    <path id="Path_76" data-name="Path 76" d="M334.255,406.009h0a4.482,4.482,0,0,0-4.482.462,13.862,13.862,0,0,0-6.3,10.92,4.713,4.713,0,0,0,1.54,3.82,4.251,4.251,0,0,0,4.852-.2,13.938,13.938,0,0,0,6.315-10.92A4.435,4.435,0,0,0,334.255,406.009Z" transform="translate(-210.256 -39.357)" fill="#455a64"/>
    <path id="Path_77" data-name="Path 77" d="M329.12,407.794c2.449-1.417,4.436-.277,4.451,2.526a9.78,9.78,0,0,1-4.42,7.7c-2.449,1.417-4.451.277-4.451-2.541A9.718,9.718,0,0,1,329.12,407.794Z" transform="translate(-209.588 -38.508)" fill="#455a64"/>
    <path id="Path_78" data-name="Path 78" d="M331.858,407a3.913,3.913,0,0,1,.816,2.572,10.412,10.412,0,0,1-4.744,8.194,3.635,3.635,0,0,1-2.911.524,3.08,3.08,0,0,0,3.958.154,10.458,10.458,0,0,0,4.728-8.194A3.08,3.08,0,0,0,331.858,407Z" transform="translate(-209.415 -38.608)" fill="#e0e0e0"/>
    <path id="Path_79" data-name="Path 79" d="M328.214,417.811a10.412,10.412,0,0,0,4.744-8.194,3.912,3.912,0,0,0-.816-2.572,3.65,3.65,0,0,0-2.911.539,10.35,10.35,0,0,0-4.728,8.194,3.789,3.789,0,0,0,.8,2.557,3.635,3.635,0,0,0,2.911-.524Z" transform="translate(-209.698 -38.638)" fill="#ebebeb"/>
    <path id="Path_80" data-name="Path 80" d="M326.766,413.361a4.621,4.621,0,0,1,2.11-3.666,1.54,1.54,0,0,1,1.54-.154l-1.063-.6a1.448,1.448,0,0,0-1.54.108,4.621,4.621,0,0,0-2.11,3.65,1.448,1.448,0,0,0,.631,1.371h0l1,.57A1.54,1.54,0,0,1,326.766,413.361Z" transform="translate(-209.051 -37.653)" fill="#e0e0e0"/>
    <path id="Path_81" data-name="Path 81" d="M330.013,409.318h0a1.54,1.54,0,0,0-1.54.154,4.62,4.62,0,0,0-2.11,3.666,1.54,1.54,0,0,0,.493,1.278,1.417,1.417,0,0,0,1.633-.077,4.621,4.621,0,0,0,2.11-3.65A1.54,1.54,0,0,0,330.013,409.318Z" transform="translate(-208.694 -37.43)" fill="#fafafa"/>
    <path id="Path_82" data-name="Path 82" d="M378.449,407.134a13.862,13.862,0,0,1,6.3-10.92,4.482,4.482,0,0,1,4.482-.462l-5.73-3.234a4.313,4.313,0,0,0-4.713.293,13.861,13.861,0,0,0-6.3,10.935,4.374,4.374,0,0,0,1.894,4.081h0l5.545,3.08A4.713,4.713,0,0,1,378.449,407.134Z" transform="translate(-183.787 -46.736)" fill="#37474f"/>
    <path id="Path_83" data-name="Path 83" d="M383.35,394.42Z" transform="translate(-177.906 -45.403)" fill="#37474f"/>
    <path id="Path_84" data-name="Path 84" d="M387.135,394.559h0a4.482,4.482,0,0,0-4.482.462,13.862,13.862,0,0,0-6.3,10.92,4.713,4.713,0,0,0,1.54,3.82,4.266,4.266,0,0,0,4.867-.2,13.861,13.861,0,0,0,6.3-10.935,4.389,4.389,0,0,0-1.925-4.066Z" transform="translate(-181.691 -45.543)" fill="#455a64"/>
    <path id="Path_85" data-name="Path 85" d="M382.006,396.344c2.449-1.417,4.436-.277,4.451,2.526a9.765,9.765,0,0,1-4.436,7.7c-2.449,1.417-4.436.277-4.451-2.541A9.734,9.734,0,0,1,382.006,396.344Z" transform="translate(-181.028 -44.694)" fill="#455a64"/>
    <path id="Path_86" data-name="Path 86" d="M384.738,395.55a3.835,3.835,0,0,1,.8,2.572,10.4,10.4,0,0,1-4.728,8.194,3.635,3.635,0,0,1-2.911.524,3.08,3.08,0,0,0,3.958.154,10.458,10.458,0,0,0,4.728-8.194A3.081,3.081,0,0,0,384.738,395.55Z" transform="translate(-180.85 -44.793)" fill="#e0e0e0"/>
    <path id="Path_87" data-name="Path 87" d="M381.1,406.351a10.4,10.4,0,0,0,4.728-8.194,3.835,3.835,0,0,0-.8-2.572,3.65,3.65,0,0,0-2.911.539,10.412,10.412,0,0,0-4.744,8.194,3.866,3.866,0,0,0,.816,2.557A3.635,3.635,0,0,0,381.1,406.351Z" transform="translate(-181.138 -44.828)" fill="#ebebeb"/>
    <path id="Path_88" data-name="Path 88" d="M379.65,401.911a4.621,4.621,0,0,1,2.11-3.666,1.54,1.54,0,0,1,1.54-.154l-1.063-.6a1.448,1.448,0,0,0-1.54.108,4.621,4.621,0,0,0-2.125,3.65,1.54,1.54,0,0,0,.631,1.371h0l1.017.57A1.54,1.54,0,0,1,379.65,401.911Z" transform="translate(-180.49 -43.838)" fill="#e0e0e0"/>
    <path id="Path_89" data-name="Path 89" d="M381.61,397.82Z" transform="translate(-178.846 -43.567)" fill="#37474f"/>
    <path id="Path_90" data-name="Path 90" d="M382.893,397.868h0a1.54,1.54,0,0,0-1.54.154,4.621,4.621,0,0,0-2.11,3.666,1.54,1.54,0,0,0,.493,1.278,1.417,1.417,0,0,0,1.633-.077,4.62,4.62,0,0,0,2.11-3.65A1.54,1.54,0,0,0,382.893,397.868Z" transform="translate(-180.129 -43.615)" fill="#fafafa"/>
    <path id="Path_91" data-name="Path 91" d="M421.05,321.035h0l-33.468-18.929h0a4.62,4.62,0,0,0-4.713,0L326.76,334.158a15.633,15.633,0,0,0-7.87,13.569V460.5a4.621,4.621,0,0,0,2.295,4.02h0l.123.077,33.345,18.852a1.832,1.832,0,0,0,.339.185h0a4.621,4.621,0,0,0,4.5-.092l56.14-32.421a15.633,15.633,0,0,0,7.824-13.538V325.148a4.621,4.621,0,0,0-2.4-4.112Z" transform="translate(-212.726 -95.618)" fill="#407bff"/>
    <path id="Path_92" data-name="Path 92" d="M352.451,479.407v-112.7a15.632,15.632,0,0,1,7.87-13.569l56.109-32.1a4.62,4.62,0,0,1,4.621,0h0l-33.468-18.929h0a4.62,4.62,0,0,0-4.713,0L326.76,334.152a15.633,15.633,0,0,0-7.87,13.569V460.494a4.621,4.621,0,0,0,2.295,4.02h0l.123.077,33.345,18.852A4.621,4.621,0,0,1,352.451,479.407Z" transform="translate(-212.726 -95.613)" opacity="0.2"/>
    <path id="Path_93" data-name="Path 93" d="M409.28,314.387a4.621,4.621,0,0,0-4.621,0L348.55,346.469a15.633,15.633,0,0,0-7.87,13.569V472.764a4.621,4.621,0,0,0,2.2,3.974,1.827,1.827,0,0,0,.339.185h0a4.62,4.62,0,0,0,4.5-.092l56.14-32.421a15.633,15.633,0,0,0,7.824-13.538V318.438A4.62,4.62,0,0,0,409.28,314.387Z" transform="translate(-200.956 -88.97)" opacity="0.4"/>
    <path id="Path_94" data-name="Path 94" d="M403.674,310.515c-2.264-1.54-8.379-4.728-8.379-4.728h0a4.728,4.728,0,0,0-4.775,0L333.673,338.3a15.833,15.833,0,0,0-7.963,13.754v114.22a4.713,4.713,0,0,0,2.326,4.081h0l.123.077,6.361,3.589a6.484,6.484,0,0,0,4.313.755H339l-3.188-1.8h0V357.66a15.956,15.956,0,0,1,8.024-13.862l57.126-32.713a4.955,4.955,0,0,1,1.463-.539l1.247.708S403.844,310.638,403.674,310.515Z" transform="translate(-209.042 -93.631)" fill="#e0e0e0"/>
    <path id="Path_95" data-name="Path 95" d="M362.79,346.4a1.894,1.894,0,0,0-.816-1.756h0l-1.633-.94h0a1.91,1.91,0,0,0-1.771.231,5.884,5.884,0,0,0-2.68,4.621l.246,84.787a1.848,1.848,0,0,0,.786,1.725h0l1.663.955h0a1.848,1.848,0,0,0,1.941-.169,5.929,5.929,0,0,0,2.665-4.621Z" transform="translate(-192.74 -72.865)" fill="#407bff"/>
    <path id="Path_96" data-name="Path 96" d="M357.677,434.28l-.246-84.8a5.853,5.853,0,0,1,2.68-4.62,1.91,1.91,0,0,1,1.864-.216h0l-1.633-.94h0a1.91,1.91,0,0,0-1.771.231,5.884,5.884,0,0,0-2.68,4.621l.246,84.787a1.848,1.848,0,0,0,.786,1.725h0l1.663.955h0a1.91,1.91,0,0,1-.909-1.74Z" transform="translate(-192.74 -72.865)" opacity="0.3"/>
    <path id="Path_97" data-name="Path 97" d="M362.25,346.078a1.628,1.628,0,0,0-2.68-1.54,5.853,5.853,0,0,0-2.68,4.62l.246,84.8a1.91,1.91,0,0,0,.755,1.694,1.848,1.848,0,0,0,1.941-.169,5.93,5.93,0,0,0,2.665-4.621Z" transform="translate(-192.199 -72.546)" opacity="0.5"/>
    <path id="Path_98" data-name="Path 98" d="M370.052,342.282a1.879,1.879,0,0,0-.816-1.74h0l-1.633-.94h-.077a1.941,1.941,0,0,0-1.787.231,5.884,5.884,0,0,0-2.68,4.621l.246,84.787a1.848,1.848,0,0,0,.785,1.725h0l1.663.955h0a1.879,1.879,0,0,0,1.941-.169,5.884,5.884,0,0,0,2.665-4.621Z" transform="translate(-188.867 -75.08)" fill="#407bff"/>
    <path id="Path_99" data-name="Path 99" d="M364.939,430.16l-.246-84.787a5.884,5.884,0,0,1,2.68-4.621,1.91,1.91,0,0,1,1.864-.2h0l-1.633-.939h-.077a1.94,1.94,0,0,0-1.787.231,5.884,5.884,0,0,0-2.68,4.621l.246,84.787a1.848,1.848,0,0,0,.785,1.725h0l1.663.955h0A1.91,1.91,0,0,1,364.939,430.16Z" transform="translate(-188.867 -75.075)" opacity="0.3"/>
    <path id="Path_100" data-name="Path 100" d="M369.48,341.965a1.879,1.879,0,0,0-.816-1.74,1.91,1.91,0,0,0-1.864.2,5.884,5.884,0,0,0-2.68,4.621l.246,84.787a1.91,1.91,0,0,0,.755,1.71,1.879,1.879,0,0,0,1.941-.169,5.884,5.884,0,0,0,2.665-4.621Z" transform="translate(-188.294 -74.763)" opacity="0.5"/>
    <path id="Path_101" data-name="Path 101" d="M377.282,338.182a1.848,1.848,0,0,0-.816-1.74h0l-1.633-.939h-.077a1.94,1.94,0,0,0-1.787.231,5.883,5.883,0,0,0-2.68,4.621l.246,84.787a1.879,1.879,0,0,0,.786,1.725h0l1.663.955h0a1.879,1.879,0,0,0,1.941-.169,5.883,5.883,0,0,0,2.665-4.62Z" transform="translate(-184.961 -77.295)" fill="#407bff"/>
    <path id="Path_102" data-name="Path 102" d="M372.169,426.06l-.246-84.787a5.883,5.883,0,0,1,2.68-4.621,1.91,1.91,0,0,1,1.864-.2h0l-1.633-.94h-.077a1.941,1.941,0,0,0-1.787.231,5.884,5.884,0,0,0-2.68,4.62l.246,84.787a1.879,1.879,0,0,0,.786,1.725h0l1.663.955h0a1.91,1.91,0,0,1-.816-1.771Z" transform="translate(-184.961 -77.289)" opacity="0.3"/>
    <path id="Path_103" data-name="Path 103" d="M376.71,337.865a1.848,1.848,0,0,0-.816-1.74,1.91,1.91,0,0,0-1.864.2,5.883,5.883,0,0,0-2.68,4.621l.246,84.787a1.91,1.91,0,0,0,.755,1.71,1.879,1.879,0,0,0,1.941-.169,5.884,5.884,0,0,0,2.665-4.621Z" transform="translate(-184.388 -76.978)" opacity="0.5"/>
    <path id="Path_104" data-name="Path 104" d="M325.71,337.871v114.22a4.713,4.713,0,0,0,2.326,4.081h0l.123.077,6.361,3.589a6.484,6.484,0,0,0,4.313.755H339l-3.188-1.8h0V343.524a16.065,16.065,0,0,1,1.386-6.453l-10.011-5.76a15.819,15.819,0,0,0-1.478,6.561Z" transform="translate(-209.042 -79.494)" opacity="0.2"/>
    <path id="Path_105" data-name="Path 105" d="M403.166,310.515c-2.264-1.54-8.379-4.728-8.379-4.728h0a4.728,4.728,0,0,0-4.775,0L333.165,338.3a15.818,15.818,0,0,0-6.515,7.193l10.011,5.76a16.033,16.033,0,0,1,6.638-7.377l57.156-32.79a4.955,4.955,0,0,1,1.463-.539l1.247.708S403.336,310.638,403.166,310.515Z" transform="translate(-208.535 -93.631)" opacity="0.1"/>
    <path id="Path_106" data-name="Path 106" d="M335.2,225.105c-1.694,16.68,4.1,24.889,19.375,53.906,0,0-3.542,21.362-9.826,33.391-6.238,2.526-8.779,7.7-12.322,9.6a1.171,1.171,0,0,0-.493,1.648c1.54,2.31,5.3.539,8.81-1.54-.262,4.852-1.925,5.452-4.189,7.7s4.621,3.311,10.3,1.093c7.069-2.711,6.284-4.621,7.424-6.161s-.139-8.332-.139-8.332l16.942-29.91a15,15,0,0,0,.37-12.568l-15.895-37.365a18.852,18.852,0,0,0-17.358-11.474Z" transform="translate(-205.767 -136.873)" fill="#ffa8a7"/>
    <path id="Path_107" data-name="Path 107" d="M334.9,247.07a19.791,19.791,0,0,1-23.8,6.992,14.709,14.709,0,0,0,13.584,3.773C329.428,256.619,333.479,251.752,334.9,247.07Z" transform="translate(-216.934 -124.999)" opacity="0.2"/>
  </g>
  <g id="freepik--character-1--inject-5" transform="translate(154.085 193.25)">
    <path id="Path_108" data-name="Path 108" d="M197.8,337.852c8.456,9.765,37.658,34.87,37.642,38.428,10.027,1.217,12.6-6.453,12.6-6.453l-5.884-9.241a147.463,147.463,0,0,1-9.241-16.819l-.216-.447A147.751,147.751,0,0,0,218.331,319h0Z" transform="translate(-94.028 -83.465)" fill="#a66262"/>
    <path id="Path_109" data-name="Path 109" d="M178.531,331.84l-6.161,73.343c4.02,2.788,12.938,1.186,12.938,1.186,3.712-23.1,17.851-38.32,21.717-70.664Z" transform="translate(-107.765 -76.529)" fill="#a66262"/>
    <path id="Path_110" data-name="Path 110" d="M243.893,360.2c-.616,1.54-1.432,3.08-2.064,4.728-1.694,4.42-1.848,8.794-3.542,13.215a19.437,19.437,0,0,1-9.164,10.211,24.3,24.3,0,0,1-13.723,2.433,25.028,25.028,0,0,0,1.771,2.28,19.268,19.268,0,0,0,22.81-11.721c1.694-4.42,1.848-8.81,3.542-13.23.616-1.54,1.448-3.08,2.064-4.728a9.441,9.441,0,0,0,.539-5.052s-.632-.832-1.54-2.141A9.641,9.641,0,0,1,243.893,360.2Z" transform="translate(-84.521 -63.37)" fill="#f0f0f0"/>
    <path id="Path_111" data-name="Path 111" d="M238.421,350.736c-.477-.909-2.172-.493-2.172-.493l.755,1.171a12.32,12.32,0,0,1-3.419,2.172,2.988,2.988,0,0,0-1.756,2.064l-.139.555a.7.7,0,0,1-.493.693.524.524,0,0,1-.477-.247,1.617,1.617,0,0,1-.2-.539c-.077-.385-.231-.832-.37-1.278a2.11,2.11,0,0,0-1.679-1.448,9.426,9.426,0,0,0-5.914,1.094,1.263,1.263,0,0,0-.539,1.54c2.433,6.161-2.125,21.563-5.006,24.088l-.662.616c5.5-2.618,13.677-3.989,19.591,4.2a19.438,19.438,0,0,0,1.833-3.558c1.694-4.42,1.848-8.794,3.542-13.215.632-1.54,1.448-3.08,2.064-4.728a9.643,9.643,0,0,0,.647-4,86.245,86.245,0,0,1-5.606-8.687Z" transform="translate(-84.007 -66.639)" fill="#407bff"/>
    <path id="Path_112" data-name="Path 112" d="M238.421,350.736c-.477-.909-2.172-.493-2.172-.493l.755,1.171a12.32,12.32,0,0,1-3.419,2.172,2.988,2.988,0,0,0-1.756,2.064l-.139.555a.7.7,0,0,1-.493.693.524.524,0,0,1-.477-.247,1.617,1.617,0,0,1-.2-.539c-.077-.385-.231-.832-.37-1.278a2.11,2.11,0,0,0-1.679-1.448,9.426,9.426,0,0,0-5.914,1.094,1.263,1.263,0,0,0-.539,1.54c2.433,6.161-2.125,21.563-5.006,24.088l-.662.616c5.5-2.618,13.677-3.989,19.591,4.2a19.438,19.438,0,0,0,1.833-3.558c1.694-4.42,1.848-8.794,3.542-13.215.632-1.54,1.448-3.08,2.064-4.728a9.643,9.643,0,0,0,.647-4,86.245,86.245,0,0,1-5.606-8.687Z" transform="translate(-84.007 -66.639)" opacity="0.2"/>
    <path id="Path_113" data-name="Path 113" d="M217.663,370.7c-3.835,3.65-5.375,7.7-1.463,13.292a24.3,24.3,0,0,0,13.723-2.433,19.529,19.529,0,0,0,7.331-6.654C231.34,366.755,223.161,368.126,217.663,370.7Z" transform="translate(-85.32 -56.614)" fill="#fff"/>
    <path id="Path_114" data-name="Path 114" d="M194.011,388.721c-1.432.97-2.973,1.756-4.39,2.711-3.927,2.664-6.546,6.161-10.458,8.856a19.5,19.5,0,0,1-13.353,3.157,24.258,24.258,0,0,1-12.66-5.822,24.321,24.321,0,0,0,.169,2.88,19.252,19.252,0,0,0,25.413,3.373c3.912-2.665,6.53-6.161,10.458-8.856,1.417-.955,2.957-1.74,4.39-2.711a9.473,9.473,0,0,0,3.327-3.85s0-1.047-.092-2.649A9.718,9.718,0,0,1,194.011,388.721Z" transform="translate(-118.147 -47.375)" fill="#f0f0f0"/>
    <path id="Path_115" data-name="Path 115" d="M194.1,381.178a1.417,1.417,0,0,0-.94-1.417l-.216,1.109a13.968,13.968,0,0,1-4.436-.123,3.08,3.08,0,0,0-2.634.693l-.416.385c-.231.2-.539.416-.8.293a.554.554,0,0,1-.262-.478,1.355,1.355,0,0,1,.154-.554c.139-.37.277-.816.416-1.263a2.079,2.079,0,0,0-.555-2.141,9.519,9.519,0,0,0-5.468-2.48,1.278,1.278,0,0,0-1.371.986c-1.54,6.469-14.016,16.5-17.82,16.942l-.893.123c6.007.97,13.507,4.513,13.692,14.616a20.313,20.313,0,0,0,3.527-1.864c3.912-2.665,6.53-6.161,10.458-8.856,1.417-.955,2.957-1.74,4.39-2.711a9.72,9.72,0,0,0,2.8-2.911,86.522,86.522,0,0,1,.37-10.35Z" transform="translate(-115.062 -53.109)" fill="#407bff"/>
    <path id="Path_116" data-name="Path 116" d="M194.1,381.178a1.417,1.417,0,0,0-.94-1.417l-.216,1.109a13.968,13.968,0,0,1-4.436-.123,3.08,3.08,0,0,0-2.634.693l-.416.385c-.231.2-.539.416-.8.293a.554.554,0,0,1-.262-.478,1.355,1.355,0,0,1,.154-.554c.139-.37.277-.816.416-1.263a2.079,2.079,0,0,0-.555-2.141,9.519,9.519,0,0,0-5.468-2.48,1.278,1.278,0,0,0-1.371.986c-1.54,6.469-14.016,16.5-17.82,16.942l-.893.123c6.007.97,13.507,4.513,13.692,14.616a20.313,20.313,0,0,0,3.527-1.864c3.912-2.665,6.53-6.161,10.458-8.856,1.417-.955,2.957-1.74,4.39-2.711a9.72,9.72,0,0,0,2.8-2.911,86.522,86.522,0,0,1,.37-10.35Z" transform="translate(-115.062 -53.109)" opacity="0.2"/>
    <path id="Path_117" data-name="Path 117" d="M161.944,386.93c-5.237.816-8.779,3.2-8.794,10.088a24.257,24.257,0,0,0,12.66,5.822,19.328,19.328,0,0,0,9.826-1.294C175.452,391.443,167.951,387.9,161.944,386.93Z" transform="translate(-118.147 -46.77)" fill="#fff"/>
    <path id="Path_118" data-name="Path 118" d="M172.1,268.885c-1.448,28.986,3.08,54.985,8.456,64.164a145.932,145.932,0,0,0-3.912,34.346c14.231,9.241,33.422,4.852,33.422,4.852l.832-6.161c13.2-3.4,21.285-16.942,22.487-20.531L222.6,330.292s8.148-24.828,8.979-30.419l-.262-1.663c3.157-11.551,3.758-23.318,2.264-29.71Z" transform="translate(-108.06 -110.744)" fill="#455a64"/>
    <path id="Path_119" data-name="Path 119" d="M179.064,321.085c3.866-15.633,9.98-34.5,9.98-34.5-5.113-2.018-10.612-7.7-11.074-9.6,0,5.329,4.22,10.258,6.038,11.6a303.416,303.416,0,0,0-4.944,32.5Z" transform="translate(-104.74 -106.158)" opacity="0.2"/>
    <path id="Path_120" data-name="Path 120" d="M197.2,343.638l9.919-32.96L205.055,310C201.636,316.022,198.016,336.445,197.2,343.638Z" transform="translate(-94.352 -88.327)" opacity="0.2"/>
    <path id="Path_121" data-name="Path 121" d="M199.825,287.213a1.248,1.248,0,0,0-1.34.893c-1.4,5.006-7.316,26.183-9.241,33.037a2.464,2.464,0,0,0,1.54,3,44.665,44.665,0,0,0,18.282,1.448,2.742,2.742,0,0,0,1.124-.4l.277-.169a2.926,2.926,0,0,0,1.155-1.325l1.54-3.542s8.148-24.828,8.979-30.419l-.262-1.663C217.044,288.784,203.722,287.721,199.825,287.213Z" transform="translate(-98.702 -100.64)" fill="#37474f"/>
    <path id="Path_122" data-name="Path 122" d="M216.022,221.06l-3.373-1.879a17.327,17.327,0,0,0-20.284,2.449l-28.2,26.183s-10.673-19.437-12.629-25.844c-.616-2.018.57-4.189,1.155-6.161a13.137,13.137,0,0,0,.678-6.238,16.572,16.572,0,0,1,.616-8.163,1.448,1.448,0,0,0-1.463-1.879h-.308a3.373,3.373,0,0,0-2.064.832,4.805,4.805,0,0,0-1.047,2,29.772,29.772,0,0,0-1.2,5.7,27.107,27.107,0,0,1-2.295-11.752,16.555,16.555,0,0,0-.077-4.621,4.035,4.035,0,0,0-2.957-3.219,10.951,10.951,0,0,0-1.679,3.65,3.481,3.481,0,0,0-2.834,0,3.08,3.08,0,0,0-1.54,2.249,6.792,6.792,0,0,0-5.144,4.251,14.231,14.231,0,0,0-.862,6.684,38.4,38.4,0,0,0,7.7,20.577c3.666,13.862,6.9,29.495,12.09,41.585a10.366,10.366,0,0,0,15.279,4.482,442.273,442.273,0,0,0,36.579-27.215Z" transform="translate(-130.423 -153.975)" fill="#a66262"/>
    <path id="Path_123" data-name="Path 123" d="M202.087,211.064l-3.373-1.879a17.327,17.327,0,0,0-20.284,2.449L156.22,232.272c2.218,11.29,12.845,19.129,12.845,19.129l19.16-16.665Z" transform="translate(-116.489 -143.978)" fill="#407bff"/>
    <path id="Path_124" data-name="Path 124" d="M155.164,240.49a28.016,28.016,0,0,0-2.834-13l1.54-1.371C155.179,227.876,157.828,232.589,155.164,240.49Z" transform="translate(-118.59 -133.637)" opacity="0.2"/>
    <path id="Path_125" data-name="Path 125" d="M141.307,214.664a8.579,8.579,0,0,1,.246-11.844,6.469,6.469,0,0,0-3.974,5.591A7.223,7.223,0,0,0,141.307,214.664Z" transform="translate(-126.558 -146.223)" opacity="0.2"/>
    <path id="Path_126" data-name="Path 126" d="M193.991,207l-5.745.616a14.17,14.17,0,0,0-10.412,6.376c-5.914,9.118-8.656,23.1-7.069,38.181,1.987,18.836.77,51.427.77,51.427,24.951,18.22,58.85,2.095,62.809-1.864l-3.619-32.806a16.126,16.126,0,0,1,1.263-7.609c2.356-5.468,6.561-16.249,7.131-24.643a43.571,43.571,0,0,0-4.621-21.563L212.674,207Z" transform="translate(-108.871 -143.965)" fill="#f0f0f0"/>
    <path id="Path_127" data-name="Path 127" d="M211.078,249.8a97.2,97.2,0,0,0,6.777-21.562c-2.31,1.386-4.775,2.772-5.729,5.083a40.8,40.8,0,0,0-2.31,23.549A15.942,15.942,0,0,1,211.078,249.8Z" transform="translate(-87.961 -132.492)" opacity="0.1"/>
    <path id="Path_128" data-name="Path 128" d="M225.425,204.465a14.663,14.663,0,0,0,4.081-19.345,7.963,7.963,0,0,0,3.866-3.65,4.266,4.266,0,0,0-5.545-5.683,5.976,5.976,0,0,0-2.387-6.992,5.652,5.652,0,0,0-7.023,1.294,3.835,3.835,0,0,0-2.618-3.758,7.7,7.7,0,0,0-4.867.308c-1.54.539-3.08,1.309-4.621,1.817a35.545,35.545,0,0,1-8.3,1.063A16.664,16.664,0,0,0,190,171.644c-2.357,1.54-4.436,5.083-3.08,8.148a4.62,4.62,0,0,0-3.342-1.771,4.436,4.436,0,0,0-3.419,1.448c1.756,1.078,3.45,2.249,5.19,3.327a4.728,4.728,0,0,0-5.329,2.125,10.627,10.627,0,0,0-.94,5.637,74.974,74.974,0,0,0,3.866,21.563c1.186,3.589,2.911,7.393,6.315,9.056Z" transform="translate(-104.172 -166.073)" fill="#263238"/>
    <path id="Path_129" data-name="Path 129" d="M205.173,197.56V212.5a7.054,7.054,0,0,1-2.387,5.3,20.023,20.023,0,0,1-14.277,4.852,5.052,5.052,0,0,1-2.957-.909,3.9,3.9,0,0,1-.955-4.066,7.915,7.915,0,0,1,1.078-2.2,6.762,6.762,0,0,0,1.186-3.773V197.56Z" transform="translate(-101.277 -149.065)" fill="#a66262"/>
    <path id="Path_130" data-name="Path 130" d="M196.858,209.6a40.524,40.524,0,0,0,7.439,1.54V197.6H186v3.173a14.849,14.849,0,0,0,1.54,2.634A18.22,18.22,0,0,0,196.858,209.6Z" transform="translate(-100.402 -149.043)" opacity="0.2"/>
    <path id="Path_131" data-name="Path 131" d="M227.622,179.944a76.485,76.485,0,0,1-1.925,29.787,23.2,23.2,0,0,1-2.357,6.161,9.872,9.872,0,0,1-4.836,4.3,15.294,15.294,0,0,1-7.994,0c-4.852-.847-9.842-1.756-14.062-4.312s-7.562-7.162-7.162-12.09a8.425,8.425,0,0,1-8.071.447,8.548,8.548,0,0,1-4.42-6.838c-.2-2.757,1.4-5.822,4.112-6.361a5.883,5.883,0,0,1,4.621,1.371,17.712,17.712,0,0,1,3.281,3.82,5.743,5.743,0,0,0,1.633,1.756,1.971,1.971,0,0,0,2.249,0,2.9,2.9,0,0,0,.647-2.449l-.277-6.238a2.5,2.5,0,0,1,1.371-2.326,6.161,6.161,0,0,0,2.8-3.2,12.983,12.983,0,0,0,.785-3.758,1.54,1.54,0,0,1,2.095-1.309A45.975,45.975,0,0,0,227.622,179.944Z" transform="translate(-105.383 -159.311)" fill="#a66262"/>
    <path id="Path_132" data-name="Path 132" d="M201.268,189.29l5.606,9.441-6.684,1.248Z" transform="translate(-92.737 -153.532)" fill="#8c4949"/>
    <path id="Path_133" data-name="Path 133" d="M196.059,198.34l5.083,2.48a3.373,3.373,0,0,1-3.866,1.094A3.08,3.08,0,0,1,196.059,198.34Z" transform="translate(-95.059 -148.643)" fill="#8c4949"/>
    <path id="Path_134" data-name="Path 134" d="M196.059,198.34l5.083,2.48a3.373,3.373,0,0,1-3.866,1.094A3.08,3.08,0,0,1,196.059,198.34Z" transform="translate(-95.059 -148.643)" opacity="0.3"/>
    <path id="Path_135" data-name="Path 135" d="M199.1,201.754a3.08,3.08,0,0,1-1.771-.154,2.742,2.742,0,0,1-1.355-2.68,3.08,3.08,0,0,1,3.08,2.834Z" transform="translate(-95.022 -148.33)" fill="#8c4949"/>
    <path id="Path_136" data-name="Path 136" d="M194.614,190.133a1.925,1.925,0,1,0,2.095-1.71A1.925,1.925,0,0,0,194.614,190.133Z" transform="translate(-95.755 -154.005)" fill="#263238"/>
    <path id="Path_137" data-name="Path 137" d="M205.063,190.788a1.925,1.925,0,1,0,2.095-1.725,1.925,1.925,0,0,0-2.095,1.725Z" transform="translate(-90.109 -153.659)" fill="#263238"/>
    <path id="Path_138" data-name="Path 138" d="M206.76,185.5l3.943,3.342a2.742,2.742,0,0,0-.524-3.08,3.25,3.25,0,0,0-3.419-.262Z" transform="translate(-89.188 -155.778)" fill="#263238"/>
    <path id="Path_139" data-name="Path 139" d="M197.776,184.4l-4.528,2.5a2.726,2.726,0,0,1,1.124-2.911A3.25,3.25,0,0,1,197.776,184.4Z" transform="translate(-96.529 -156.56)" fill="#263238"/>
    <path id="Path_140" data-name="Path 140" d="M275.731,277.92l-90.3,52.135v69.508l30.1,17.389,90.3-52.151V295.293Z" transform="translate(-100.71 -105.656)" fill="#455a64"/>
    <path id="Path_141" data-name="Path 141" d="M275.731,277.92l-90.3,52.135v69.508l30.1,17.389,90.3-52.151V295.293Z" transform="translate(-100.71 -105.656)" fill="#fff" opacity="0.5"/>
    <path id="Path_142" data-name="Path 142" d="M185.43,311.77l30.1,17.373v69.524l-30.1-17.389Z" transform="translate(-100.71 -87.37)" opacity="0.1"/>
    <path id="Path_143" data-name="Path 143" d="M185.43,330.055l90.3-52.135,30.1,17.373-90.3,52.135Z" transform="translate(-100.71 -105.656)" fill="#fff" opacity="0.2"/>
    <path id="Path_144" data-name="Path 144" d="M205,324.415v7.824h0a13.323,13.323,0,0,0,7.008-11.736v-.123Z" transform="translate(-90.138 -82.719)" fill="#ebebeb"/>
    <path id="Path_145" data-name="Path 145" d="M207.458,324.415v7.824h0A13.323,13.323,0,0,1,200.45,320.5v-.123Z" transform="translate(-92.596 -82.719)" fill="#e0e0e0"/>
    <path id="Path_146" data-name="Path 146" d="M185.43,359.644V351.82h0a13.338,13.338,0,0,1,6.992,11.736v.139Z" transform="translate(-100.71 -65.736)" fill="#e0e0e0"/>
    <path id="Path_147" data-name="Path 147" d="M266.058,337.084V329.26h0A13.322,13.322,0,0,0,259.05,341v.185Z" transform="translate(-60.942 -77.923)" fill="#ebebeb"/>
    <path id="Path_148" data-name="Path 148" d="M200.42,321.18c4.3-2.973,10.889-2.726,14.016,0l-6.962,4.035Z" transform="translate(-92.612 -83.442)" fill="#f0f0f0"/>
    <path id="Path_149" data-name="Path 149" d="M253.51,281.971c-4.3,2.957-10.874,2.726-14,0l7.008-4.051Z" transform="translate(-71.497 -105.656)" fill="#f0f0f0"/>
    <path id="Path_150" data-name="Path 150" d="M185.43,311.77v9.965a9.718,9.718,0,0,0,7.84-5.437Z" transform="translate(-100.71 -87.37)" fill="#e0e0e0"/>
    <path id="Path_151" data-name="Path 151" d="M207.755,371.69v-9.98a9.718,9.718,0,0,0-7.855,5.437Z" transform="translate(-92.893 -60.394)" fill="#e0e0e0"/>
    <path id="Path_152" data-name="Path 152" d="M205,371.69v-9.98a9.672,9.672,0,0,1,7.84,5.437Z" transform="translate(-90.138 -60.394)" fill="#ebebeb"/>
    <path id="Path_153" data-name="Path 153" d="M193.286,317.541c1.463-4.42-.524-7.131-1.725-8.07l-6.161,3.542Z" transform="translate(-100.726 -88.613)" fill="#f0f0f0"/>
    <path id="Path_154" data-name="Path 154" d="M266.355,289.2v9.965a9.719,9.719,0,0,1-7.855-5.437Z" transform="translate(-61.239 -99.562)" fill="#ebebeb"/>
    <path id="Path_155" data-name="Path 155" d="M258.679,294.971c-1.448-4.42.524-7.131,1.725-8.07l6.161,3.542Z" transform="translate(-61.418 -100.805)" fill="#f0f0f0"/>
    <path id="Path_156" data-name="Path 156" d="M197.831,388.45V318.942l-4.081-2.372v69.524Z" transform="translate(-96.215 -84.778)" fill="#e0e0e0"/>
    <path id="Path_157" data-name="Path 157" d="M284.051,282.73l-90.3,52.12,4.081,2.372,90.3-52.135Z" transform="translate(-96.215 -103.057)" fill="#f0f0f0"/>
    <path id="Path_158" data-name="Path 158" d="M238.066,301.684c-1.725.6-5.036.832-6.161-1.094v-7.085l-2.757,1.54-2.249-5.1,5.36-3.08a3.866,3.866,0,0,1,5.776,3.373Z" transform="translate(-78.308 -101.095)" fill="#455a64"/>
    <path id="Path_159" data-name="Path 159" d="M238.066,301.684c-1.725.6-5.036.832-6.161-1.094v-7.085l-2.757,1.54-2.249-5.1,5.36-3.08a3.866,3.866,0,0,1,5.776,3.373Z" transform="translate(-78.308 -101.095)" fill="#fff" opacity="0.3"/>
    <path id="Path_160" data-name="Path 160" d="M189.7,215.685c11.675,13.554,9.765,35.132,9.8,53.013s-.169,36.487,7.485,52.659a34.747,34.747,0,0,0,24.381-12.029c-.585-15.232-6.654-35.5-4.775-50.98s-2.711-44-2.711-44L208.059,208.4Z" transform="translate(-98.403 -143.209)" fill="#407bff"/>
    <path id="Path_161" data-name="Path 161" d="M189.7,215.685c11.675,13.554,9.765,35.132,9.8,53.013s-.169,36.487,7.485,52.659a34.747,34.747,0,0,0,24.381-12.029c-.585-15.232-6.654-35.5-4.775-50.98s-2.711-44-2.711-44L208.059,208.4Z" transform="translate(-98.403 -143.209)" fill="#fff" opacity="0.1"/>
    <path id="Path_162" data-name="Path 162" d="M208.059,209.723a26.06,26.06,0,0,1-10.519,16.788,33.992,33.992,0,0,0-7.84-9.5c5.344-1.54,9.888-6.161,12.6-11.059,0,0,.832.231,1.094.354A44.412,44.412,0,0,1,208.059,209.723Z" transform="translate(-98.403 -144.533)" fill="#407bff"/>
    <path id="Path_163" data-name="Path 163" d="M208.059,209.723a26.06,26.06,0,0,1-10.519,16.788,33.992,33.992,0,0,0-7.84-9.5c5.344-1.54,9.888-6.161,12.6-11.059,0,0,.832.231,1.094.354A44.412,44.412,0,0,1,208.059,209.723Z" transform="translate(-98.403 -144.533)" fill="#fff" opacity="0.3"/>
    <path id="Path_164" data-name="Path 164" d="M192.017,215.128c-9.842,19.622-14.278,53.367-14,99.711-6.838-1.34-10.6-10.073-10.6-10.073,2.8-40.461-3.835-85.326,11.012-93.951,5.437-2.926,7.1-3.866,17.127-3.866Z" transform="translate(-110.439 -143.992)" fill="#407bff"/>
    <path id="Path_165" data-name="Path 165" d="M192.017,215.128c-9.842,19.622-14.278,53.367-14,99.711-6.838-1.34-10.6-10.073-10.6-10.073,2.8-40.461-3.835-85.326,11.012-93.951,5.437-2.926,7.1-3.866,17.127-3.866Z" transform="translate(-110.439 -143.992)" fill="#fff" opacity="0.1"/>
    <path id="Path_166" data-name="Path 166" d="M189.893,205.25c-4.467.847-11.582,9.919-11.074,16.788a17.682,17.682,0,0,1,7.069-5.991,10.181,10.181,0,0,1,2.68-4.513h0a6.761,6.761,0,0,0,1.309-3.989Z" transform="translate(-104.295 -144.911)" fill="#407bff"/>
    <path id="Path_167" data-name="Path 167" d="M189.893,205.25c-4.467.847-11.582,9.919-11.074,16.788a17.682,17.682,0,0,1,7.069-5.991,10.181,10.181,0,0,1,2.68-4.513h0a6.761,6.761,0,0,0,1.309-3.989Z" transform="translate(-104.295 -144.911)" fill="#fff" opacity="0.3"/>
    <path id="Path_168" data-name="Path 168" d="M211.89,240.053l8.733,27c-2.095,18.59,3.758,37.5,1.74,49.286l-2.957,3.7a6.839,6.839,0,0,0-.339,7.855l.708,1.093h0a2.726,2.726,0,0,0,.477,4.081l2.326,1.617a5.391,5.391,0,0,0,6.053.077l7.362-4.852a5.421,5.421,0,0,0,2.218-6.038l-3.265-11.043c2.418-19.268,4.282-32.482,5.421-40.183a45.344,45.344,0,0,0-.647-16.68L234.777,234.4Z" transform="translate(-86.417 -129.164)" fill="#a66262"/>
    <path id="Path_169" data-name="Path 169" d="M214.27,212.26l3.173.893a20.684,20.684,0,0,1,13.939,13.261L241.5,256.2c-9.118,9.565-25.521,6.654-25.521,6.654l-3.25-15.171C201.271,227.723,211.79,215.51,214.27,212.26Z" transform="translate(-88.797 -141.124)" fill="#407bff"/>
    <path id="Path_170" data-name="Path 170" d="M208.23,232.69a2.788,2.788,0,0,0-2.973,1.294,5.606,5.606,0,0,0-3.327-1.694,5.067,5.067,0,0,0-.4,3.881,3.42,3.42,0,0,0-2.51,2.033,3.619,3.619,0,0,0,3.234,1.54,5.607,5.607,0,0,0,1.74,3.619,3.465,3.465,0,0,0,2.5-3.45,1.987,1.987,0,0,0,1.54.554,6.439,6.439,0,0,0,2.772-.508,5.052,5.052,0,0,0-.955-2.326,4.621,4.621,0,0,0-1.879-1.54,4.513,4.513,0,0,0,.262-3.4Z" transform="translate(-93.369 -130.304)" fill="#407bff"/>
    <path id="Path_171" data-name="Path 171" d="M208.23,232.69a2.788,2.788,0,0,0-2.973,1.294,5.606,5.606,0,0,0-3.327-1.694,5.067,5.067,0,0,0-.4,3.881,3.42,3.42,0,0,0-2.51,2.033,3.619,3.619,0,0,0,3.234,1.54,5.607,5.607,0,0,0,1.74,3.619,3.465,3.465,0,0,0,2.5-3.45,1.987,1.987,0,0,0,1.54.554,6.439,6.439,0,0,0,2.772-.508,5.052,5.052,0,0,0-.955-2.326,4.621,4.621,0,0,0-1.879-1.54,4.513,4.513,0,0,0,.262-3.4Z" transform="translate(-93.369 -130.304)" fill="#fff" opacity="0.5"/>
    <path id="Path_172" data-name="Path 172" d="M205.191,235.233a2,2,0,1,1-2.772-.647,2,2,0,0,1,2.772.647Z" transform="translate(-92.039 -129.227)" fill="#407bff"/>
    <path id="Path_173" data-name="Path 173" d="M205.191,235.233a2,2,0,1,1-2.772-.647,2,2,0,0,1,2.772.647Z" transform="translate(-92.039 -129.227)" fill="#fff" opacity="0.7"/>
    <path id="Path_174" data-name="Path 174" d="M213.727,247a2.357,2.357,0,0,0-2.218-1.54,4.621,4.621,0,0,0-.169-3.08,4.266,4.266,0,0,0-2.973,1.355,2.911,2.911,0,0,0-2.526-.94,3.08,3.08,0,0,0,.277,2.973,4.621,4.621,0,0,0-1.848,2.788,2.849,2.849,0,0,0,3.527.323,1.71,1.71,0,0,0,.262,1.34,5.16,5.16,0,0,0,1.54,1.787,4.328,4.328,0,0,0,1.263-1.679,3.82,3.82,0,0,0,.262-1.971,3.773,3.773,0,0,0,2.6-1.355Z" transform="translate(-90.533 -124.854)" fill="#407bff"/>
    <path id="Path_175" data-name="Path 175" d="M213.727,247a2.357,2.357,0,0,0-2.218-1.54,4.621,4.621,0,0,0-.169-3.08,4.266,4.266,0,0,0-2.973,1.355,2.911,2.911,0,0,0-2.526-.94,3.08,3.08,0,0,0,.277,2.973,4.621,4.621,0,0,0-1.848,2.788,2.849,2.849,0,0,0,3.527.323,1.71,1.71,0,0,0,.262,1.34,5.16,5.16,0,0,0,1.54,1.787,4.328,4.328,0,0,0,1.263-1.679,3.82,3.82,0,0,0,.262-1.971,3.773,3.773,0,0,0,2.6-1.355Z" transform="translate(-90.533 -124.854)" fill="#fff" opacity="0.5"/>
    <path id="Path_176" data-name="Path 176" d="M209.363,246.448a1.679,1.679,0,1,1-.725-2.26A1.694,1.694,0,0,1,209.363,246.448Z" transform="translate(-89.495 -123.978)" fill="#407bff"/>
    <path id="Path_177" data-name="Path 177" d="M209.363,246.448a1.679,1.679,0,1,1-.725-2.26A1.694,1.694,0,0,1,209.363,246.448Z" transform="translate(-89.495 -123.978)" fill="#fff" opacity="0.7"/>
    <path id="Path_178" data-name="Path 178" d="M211.466,265.643a4.3,4.3,0,0,0-.986-4.836,8.5,8.5,0,0,0,3.6-4.359,7.7,7.7,0,0,0-5.622-1.864,5.237,5.237,0,0,0-2.218-4.374,5.483,5.483,0,0,0-3.281,4.3,8.5,8.5,0,0,0-5.914,1.417,5.221,5.221,0,0,0,4.3,4.805,3.08,3.08,0,0,0-1.309,2.11,9.842,9.842,0,0,0-.154,4.282,7.577,7.577,0,0,0,3.758-.662,6.839,6.839,0,0,0,2.8-2.326A6.792,6.792,0,0,0,211.466,265.643Z" transform="translate(-94.433 -120.624)" fill="#407bff"/>
    <path id="Path_179" data-name="Path 179" d="M211.466,265.643a4.3,4.3,0,0,0-.986-4.836,8.5,8.5,0,0,0,3.6-4.359,7.7,7.7,0,0,0-5.622-1.864,5.237,5.237,0,0,0-2.218-4.374,5.483,5.483,0,0,0-3.281,4.3,8.5,8.5,0,0,0-5.914,1.417,5.221,5.221,0,0,0,4.3,4.805,3.08,3.08,0,0,0-1.309,2.11,9.842,9.842,0,0,0-.154,4.282,7.577,7.577,0,0,0,3.758-.662,6.839,6.839,0,0,0,2.8-2.326A6.792,6.792,0,0,0,211.466,265.643Z" transform="translate(-94.433 -120.624)" fill="#fff" opacity="0.5"/>
    <path id="Path_180" data-name="Path 180" d="M204.723,259.934a3.08,3.08,0,1,1,1.848-3.9,3.08,3.08,0,0,1-1.848,3.9Z" transform="translate(-92.526 -118.597)" fill="#407bff"/>
    <path id="Path_181" data-name="Path 181" d="M204.723,259.934a3.08,3.08,0,1,1,1.848-3.9,3.08,3.08,0,0,1-1.848,3.9Z" transform="translate(-92.526 -118.597)" fill="#fff" opacity="0.7"/>
    <path id="Path_182" data-name="Path 182" d="M213.329,270.664A2.433,2.433,0,0,0,214.7,268.2a4.821,4.821,0,0,0,3.188-.554,4.482,4.482,0,0,0-1.74-2.9,1.764,1.764,0,1,0-2.418-2.079,4.867,4.867,0,0,0-3.08-1.54,2.973,2.973,0,0,0,0,3.681,1.709,1.709,0,0,0-1.355.416,5.667,5.667,0,0,0-1.663,1.817,4.42,4.42,0,0,0,1.879,1.093,3.973,3.973,0,0,0,2.079,0A3.958,3.958,0,0,0,213.329,270.664Z" transform="translate(-88.718 -114.725)" fill="#407bff"/>
    <path id="Path_183" data-name="Path 183" d="M213.329,270.664A2.433,2.433,0,0,0,214.7,268.2a4.821,4.821,0,0,0,3.188-.554,4.482,4.482,0,0,0-1.74-2.9,1.764,1.764,0,1,0-2.418-2.079,4.867,4.867,0,0,0-3.08-1.54,2.973,2.973,0,0,0,0,3.681,1.709,1.709,0,0,0-1.355.416,5.667,5.667,0,0,0-1.663,1.817,4.42,4.42,0,0,0,1.879,1.093,3.973,3.973,0,0,0,2.079,0A3.958,3.958,0,0,0,213.329,270.664Z" transform="translate(-88.718 -114.725)" fill="#fff" opacity="0.5"/>
    <path id="Path_184" data-name="Path 184" d="M211.252,266.3a1.74,1.74,0,1,1,2.249-1A1.74,1.74,0,0,1,211.252,266.3Z" transform="translate(-87.365 -113.75)" fill="#407bff"/>
    <path id="Path_185" data-name="Path 185" d="M211.252,266.3a1.74,1.74,0,1,1,2.249-1A1.74,1.74,0,0,1,211.252,266.3Z" transform="translate(-87.365 -113.75)" fill="#fff" opacity="0.7"/>
    <path id="Path_186" data-name="Path 186" d="M201.53,277.839a3.173,3.173,0,0,0,3.65.293,6.33,6.33,0,0,0,2.387,3.465,5.76,5.76,0,0,0,2.5-3.635,3.85,3.85,0,0,0,3.573-.678,4.1,4.1,0,0,0-2.4-3.234,6.161,6.161,0,0,0,.2-4.513,3.881,3.881,0,0,0-4.313,2.079c-.108-.647-.739-1.078-1.232-1.371a7.33,7.33,0,0,0-3.08-.986,5.622,5.622,0,0,0-.293,2.819,5.114,5.114,0,0,0,1.078,2.48A5.067,5.067,0,0,0,201.53,277.839Z" transform="translate(-92.013 -110.334)" fill="#407bff"/>
    <path id="Path_187" data-name="Path 187" d="M201.53,277.839a3.173,3.173,0,0,0,3.65.293,6.33,6.33,0,0,0,2.387,3.465,5.76,5.76,0,0,0,2.5-3.635,3.85,3.85,0,0,0,3.573-.678,4.1,4.1,0,0,0-2.4-3.234,6.161,6.161,0,0,0,.2-4.513,3.881,3.881,0,0,0-4.313,2.079c-.108-.647-.739-1.078-1.232-1.371a7.33,7.33,0,0,0-3.08-.986,5.622,5.622,0,0,0-.293,2.819,5.114,5.114,0,0,0,1.078,2.48A5.067,5.067,0,0,0,201.53,277.839Z" transform="translate(-92.013 -110.334)" fill="#fff" opacity="0.5"/>
    <path id="Path_188" data-name="Path 188" d="M203.881,273.93a2.279,2.279,0,1,1,2.421,2.131A2.295,2.295,0,0,1,203.881,273.93Z" transform="translate(-90.745 -109.12)" fill="#407bff"/>
    <path id="Path_189" data-name="Path 189" d="M203.881,273.93a2.279,2.279,0,1,1,2.421,2.131A2.295,2.295,0,0,1,203.881,273.93Z" transform="translate(-90.745 -109.12)" fill="#fff" opacity="0.7"/>
    <path id="Path_190" data-name="Path 190" d="M203.56,220a1.894,1.894,0,0,0-1.54,1.633,3.866,3.866,0,0,0-2.526-.139,3.435,3.435,0,0,0,.816,2.526,2.325,2.325,0,0,0-.97,1.956,2.464,2.464,0,0,0,2.418,0,3.851,3.851,0,0,0,2.079,1.756,2.357,2.357,0,0,0,.585-2.834,1.34,1.34,0,0,0,1.109,0,4.728,4.728,0,0,0,1.54-1.094,3.465,3.465,0,0,0-1.232-1.171,2.11,2.11,0,0,1-2.387-2.587Z" transform="translate(-93.196 -136.943)" fill="#407bff"/>
    <path id="Path_191" data-name="Path 191" d="M203.56,220a1.894,1.894,0,0,0-1.54,1.633,3.866,3.866,0,0,0-2.526-.139,3.435,3.435,0,0,0,.816,2.526,2.325,2.325,0,0,0-.97,1.956,2.464,2.464,0,0,0,2.418,0,3.851,3.851,0,0,0,2.079,1.756,2.357,2.357,0,0,0,.585-2.834,1.34,1.34,0,0,0,1.109,0,4.728,4.728,0,0,0,1.54-1.094,3.465,3.465,0,0,0-1.232-1.171,2.11,2.11,0,0,1-2.387-2.587Z" transform="translate(-93.196 -136.943)" fill="#fff" opacity="0.5"/>
    <path id="Path_192" data-name="Path 192" d="M202.8,221.871a1.355,1.355,0,1,1-1.894.37A1.371,1.371,0,0,1,202.8,221.871Z" transform="translate(-92.47 -136.057)" fill="#407bff"/>
    <path id="Path_193" data-name="Path 193" d="M202.8,221.871a1.355,1.355,0,1,1-1.894.37A1.371,1.371,0,0,1,202.8,221.871Z" transform="translate(-92.47 -136.057)" fill="#fff" opacity="0.7"/>
    <path id="Path_194" data-name="Path 194" d="M205.6,211.45a1.54,1.54,0,0,0-.37,1.894,4.021,4.021,0,0,0-2.2,1.063,3.419,3.419,0,0,0,2.033,1.54,1.848,1.848,0,0,0,.216,1.894,2.464,2.464,0,0,0,2.064-1.078,4.343,4.343,0,0,0,2.7.323,1.925,1.925,0,0,0-1.017-2.356,1.34,1.34,0,0,0,.893-.57,3.6,3.6,0,0,0,.755-1.54,3.835,3.835,0,0,0-1.679-.293,3.328,3.328,0,0,0-1.54.431A3.08,3.08,0,0,0,205.6,211.45Z" transform="translate(-91.203 -141.562)" fill="#407bff"/>
    <path id="Path_195" data-name="Path 195" d="M205.6,211.45a1.54,1.54,0,0,0-.37,1.894,4.021,4.021,0,0,0-2.2,1.063,3.419,3.419,0,0,0,2.033,1.54,1.848,1.848,0,0,0,.216,1.894,2.464,2.464,0,0,0,2.064-1.078,4.343,4.343,0,0,0,2.7.323,1.925,1.925,0,0,0-1.017-2.356,1.34,1.34,0,0,0,.893-.57,3.6,3.6,0,0,0,.755-1.54,3.835,3.835,0,0,0-1.679-.293,3.328,3.328,0,0,0-1.54.431A3.08,3.08,0,0,0,205.6,211.45Z" transform="translate(-91.203 -141.562)" fill="#fff" opacity="0.5"/>
    <path id="Path_196" data-name="Path 196" d="M206.112,212.772a1.2,1.2,0,1,1-1.4,1.155,1.294,1.294,0,0,1,1.4-1.155Z" transform="translate(-90.295 -140.85)" fill="#407bff"/>
    <path id="Path_197" data-name="Path 197" d="M206.112,212.772a1.2,1.2,0,1,1-1.4,1.155,1.294,1.294,0,0,1,1.4-1.155Z" transform="translate(-90.295 -140.85)" fill="#fff" opacity="0.7"/>
    <path id="Path_198" data-name="Path 198" d="M180,228.606a2.8,2.8,0,0,0-3.25.092,5.607,5.607,0,0,0-2.433-2.819,5.129,5.129,0,0,0-1.833,3.45,3.481,3.481,0,0,0-3.08.955,3.619,3.619,0,0,0,2.433,2.618,5.606,5.606,0,0,0,.262,3.989,3.435,3.435,0,0,0,3.6-2.264c.154.57.755.878,1.217,1.094a6.532,6.532,0,0,0,2.772.57,5.02,5.02,0,0,0,0-2.526,4.482,4.482,0,0,0-1.2-2.064A4.62,4.62,0,0,0,180,228.606Z" transform="translate(-109.369 -133.767)" fill="#407bff"/>
    <path id="Path_199" data-name="Path 199" d="M180,228.606a2.8,2.8,0,0,0-3.25.092,5.607,5.607,0,0,0-2.433-2.819,5.129,5.129,0,0,0-1.833,3.45,3.481,3.481,0,0,0-3.08.955,3.619,3.619,0,0,0,2.433,2.618,5.606,5.606,0,0,0,.262,3.989,3.435,3.435,0,0,0,3.6-2.264c.154.57.755.878,1.217,1.094a6.532,6.532,0,0,0,2.772.57,5.02,5.02,0,0,0,0-2.526,4.482,4.482,0,0,0-1.2-2.064A4.62,4.62,0,0,0,180,228.606Z" transform="translate(-109.369 -133.767)" fill="#fff" opacity="0.5"/>
    <path id="Path_200" data-name="Path 200" d="M175.794,230a2.018,2.018,0,1,1-2.341-1.633A2.018,2.018,0,0,1,175.794,230Z" transform="translate(-108.078 -132.437)" fill="#407bff"/>
    <path id="Path_201" data-name="Path 201" d="M175.794,230a2.018,2.018,0,1,1-2.341-1.633A2.018,2.018,0,0,1,175.794,230Z" transform="translate(-108.078 -132.437)" fill="#fff" opacity="0.7"/>
    <path id="Path_202" data-name="Path 202" d="M174.554,265.541a1.54,1.54,0,0,0-2.095.616,4.944,4.944,0,0,0-2.341-1.817,4.22,4.22,0,0,0-.293,3.08,1.941,1.941,0,0,0-1.756,1.263,3.08,3.08,0,0,0,2.279,1.663,5.7,5.7,0,0,0,1.232,3.08c1.032-.077,1.756-1.032,1.756-2.372a1.663,1.663,0,0,0,1.094.662,3.988,3.988,0,0,0,1.956,0,4.928,4.928,0,0,0-.678-1.971,4.513,4.513,0,0,0-1.34-1.448,3.712,3.712,0,0,0,.185-2.757Z" transform="translate(-110.087 -112.991)" fill="#407bff"/>
    <path id="Path_203" data-name="Path 203" d="M174.554,265.541a1.54,1.54,0,0,0-2.095.616,4.944,4.944,0,0,0-2.341-1.817,4.22,4.22,0,0,0-.293,3.08,1.941,1.941,0,0,0-1.756,1.263,3.08,3.08,0,0,0,2.279,1.663,5.7,5.7,0,0,0,1.232,3.08c1.032-.077,1.756-1.032,1.756-2.372a1.663,1.663,0,0,0,1.094.662,3.988,3.988,0,0,0,1.956,0,4.928,4.928,0,0,0-.678-1.971,4.513,4.513,0,0,0-1.34-1.448,3.712,3.712,0,0,0,.185-2.757Z" transform="translate(-110.087 -112.991)" fill="#fff" opacity="0.5"/>
    <path id="Path_204" data-name="Path 204" d="M172.455,267.186a1.371,1.371,0,1,1-1.15-1A1.371,1.371,0,0,1,172.455,267.186Z" transform="translate(-109.174 -112.002)" fill="#407bff"/>
    <path id="Path_205" data-name="Path 205" d="M172.455,267.186a1.371,1.371,0,1,1-1.15-1A1.371,1.371,0,0,1,172.455,267.186Z" transform="translate(-109.174 -112.002)" fill="#fff" opacity="0.7"/>
    <path id="Path_206" data-name="Path 206" d="M178.544,244.226a2.326,2.326,0,0,0-1.54-2.172,4.621,4.621,0,0,0,.785-3.08,4.22,4.22,0,0,0-3.234.37,2.957,2.957,0,0,0-2.125-1.663,2.972,2.972,0,0,0-.632,2.911,4.621,4.621,0,0,0-2.618,2.095,2.849,2.849,0,0,0,3.25,1.4,1.664,1.664,0,0,0-.154,1.355,5.176,5.176,0,0,0,.924,2.172,4.312,4.312,0,0,0,1.71-1.217,3.7,3.7,0,0,0,.863-1.8,3.727,3.727,0,0,0,2.772-.37Z" transform="translate(-109.488 -127.393)" fill="#407bff"/>
    <path id="Path_207" data-name="Path 207" d="M178.544,244.226a2.326,2.326,0,0,0-1.54-2.172,4.621,4.621,0,0,0,.785-3.08,4.22,4.22,0,0,0-3.234.37,2.957,2.957,0,0,0-2.125-1.663,2.972,2.972,0,0,0-.632,2.911,4.621,4.621,0,0,0-2.618,2.095,2.849,2.849,0,0,0,3.25,1.4,1.664,1.664,0,0,0-.154,1.355,5.176,5.176,0,0,0,.924,2.172,4.312,4.312,0,0,0,1.71-1.217,3.7,3.7,0,0,0,.863-1.8,3.727,3.727,0,0,0,2.772-.37Z" transform="translate(-109.488 -127.393)" fill="#fff" opacity="0.5"/>
    <path id="Path_208" data-name="Path 208" d="M174.146,242.475a1.663,1.663,0,1,1,.5-1.186A1.679,1.679,0,0,1,174.146,242.475Z" transform="translate(-108.354 -126.35)" fill="#407bff"/>
    <path id="Path_209" data-name="Path 209" d="M174.146,242.475a1.663,1.663,0,1,1,.5-1.186A1.679,1.679,0,0,1,174.146,242.475Z" transform="translate(-108.354 -126.35)" fill="#fff" opacity="0.7"/>
    <path id="Path_210" data-name="Path 210" d="M173.725,258.973a3.08,3.08,0,0,0,.339-2.772,1.879,1.879,0,1,0,.139-3.743,3.881,3.881,0,0,0-.216-2.788,2.418,2.418,0,0,0-1.941,1.648,2.741,2.741,0,0,0-2.541-.4,3.527,3.527,0,0,0,.97,3.419c-.37,0-.647.508-.832.862a6.868,6.868,0,0,0-.693,2.279,2.572,2.572,0,0,0,1.54.385,2.494,2.494,0,0,0,1.463-.693,3.08,3.08,0,0,0,1.771,1.8Z" transform="translate(-109.612 -120.916)" fill="#407bff"/>
    <path id="Path_211" data-name="Path 211" d="M173.725,258.973a3.08,3.08,0,0,0,.339-2.772,1.879,1.879,0,1,0,.139-3.743,3.881,3.881,0,0,0-.216-2.788,2.418,2.418,0,0,0-1.941,1.648,2.741,2.741,0,0,0-2.541-.4,3.527,3.527,0,0,0,.97,3.419c-.37,0-.647.508-.832.862a6.868,6.868,0,0,0-.693,2.279,2.572,2.572,0,0,0,1.54.385,2.494,2.494,0,0,0,1.463-.693,3.08,3.08,0,0,0,1.771,1.8Z" transform="translate(-109.612 -120.916)" fill="#fff" opacity="0.5"/>
    <path id="Path_212" data-name="Path 212" d="M171.623,255.031c-.724,0-1.278-.8-1.263-1.756s.6-1.74,1.309-1.725,1.278.8,1.263,1.756S172.332,255.046,171.623,255.031Z" transform="translate(-108.85 -119.9)" fill="#407bff"/>
    <path id="Path_213" data-name="Path 213" d="M171.623,255.031c-.724,0-1.278-.8-1.263-1.756s.6-1.74,1.309-1.725,1.278.8,1.263,1.756S172.332,255.046,171.623,255.031Z" transform="translate(-108.85 -119.9)" fill="#fff" opacity="0.7"/>
    <path id="Path_214" data-name="Path 214" d="M176.2,217.57a1.879,1.879,0,0,0-.339,2.172,3.927,3.927,0,0,0-2.2,1.263,3.465,3.465,0,0,0,2.064,1.663,2.372,2.372,0,0,0,.246,2.172,2.434,2.434,0,0,0,2.048-1.278,3.774,3.774,0,0,0,2.7.323,2.326,2.326,0,0,0-1.047-2.68c.4,0,.678-.4.878-.678a4.359,4.359,0,0,0,.739-1.771,3.311,3.311,0,0,0-1.679-.308,3.081,3.081,0,0,0-1.54.539A3.08,3.08,0,0,0,176.2,217.57Z" transform="translate(-107.068 -138.256)" fill="#407bff"/>
    <path id="Path_215" data-name="Path 215" d="M176.2,217.57a1.879,1.879,0,0,0-.339,2.172,3.927,3.927,0,0,0-2.2,1.263,3.465,3.465,0,0,0,2.064,1.663,2.372,2.372,0,0,0,.246,2.172,2.434,2.434,0,0,0,2.048-1.278,3.774,3.774,0,0,0,2.7.323,2.326,2.326,0,0,0-1.047-2.68c.4,0,.678-.4.878-.678a4.359,4.359,0,0,0,.739-1.771,3.311,3.311,0,0,0-1.679-.308,3.081,3.081,0,0,0-1.54.539A3.08,3.08,0,0,0,176.2,217.57Z" transform="translate(-107.068 -138.256)" fill="#fff" opacity="0.5"/>
    <path id="Path_216" data-name="Path 216" d="M176.725,219.06a1.371,1.371,0,0,1,0,2.726,1.386,1.386,0,0,1-1.355-1.386A1.355,1.355,0,0,1,176.725,219.06Z" transform="translate(-106.144 -137.451)" fill="#407bff"/>
    <path id="Path_217" data-name="Path 217" d="M176.725,219.06a1.371,1.371,0,0,1,0,2.726,1.386,1.386,0,0,1-1.355-1.386A1.355,1.355,0,0,1,176.725,219.06Z" transform="translate(-106.144 -137.451)" fill="#fff" opacity="0.7"/>
    <path id="Path_218" data-name="Path 218" d="M176.312,209.42a1.54,1.54,0,0,0-.37,1.894,3.958,3.958,0,0,0-2.2,1.063,3.45,3.45,0,0,0,2.048,1.54,1.787,1.787,0,0,0,.216,1.894,2.511,2.511,0,0,0,2.064-1.094,4.174,4.174,0,0,0,2.68.339,1.925,1.925,0,0,0-1-2.356,1.4,1.4,0,0,0,.878-.57,3.6,3.6,0,0,0,.755-1.54,3.789,3.789,0,0,0-1.679-.293,3.2,3.2,0,0,0-1.54.431A3.08,3.08,0,0,0,176.312,209.42Z" transform="translate(-107.025 -142.658)" fill="#407bff"/>
    <path id="Path_219" data-name="Path 219" d="M176.312,209.42a1.54,1.54,0,0,0-.37,1.894,3.958,3.958,0,0,0-2.2,1.063,3.45,3.45,0,0,0,2.048,1.54,1.787,1.787,0,0,0,.216,1.894,2.511,2.511,0,0,0,2.064-1.094,4.174,4.174,0,0,0,2.68.339,1.925,1.925,0,0,0-1-2.356,1.4,1.4,0,0,0,.878-.57,3.6,3.6,0,0,0,.755-1.54,3.789,3.789,0,0,0-1.679-.293,3.2,3.2,0,0,0-1.54.431A3.08,3.08,0,0,0,176.312,209.42Z" transform="translate(-107.025 -142.658)" fill="#fff" opacity="0.5"/>
    <path id="Path_220" data-name="Path 220" d="M176.819,210.745a1.2,1.2,0,1,1-1.2.531,1.2,1.2,0,0,1,1.2-.531Z" transform="translate(-106.114 -141.951)" fill="#407bff"/>
    <path id="Path_221" data-name="Path 221" d="M176.819,210.745a1.2,1.2,0,1,1-1.2.531,1.2,1.2,0,0,1,1.2-.531Z" transform="translate(-106.114 -141.951)" fill="#fff" opacity="0.7"/>
    <path id="Path_222" data-name="Path 222" d="M221.328,293.7l-5.976,3.712a5.005,5.005,0,0,0-2.372,4.266v10.165c.878,1.8,4.482,1.848,6.161,1.171V302.238l5.344-3.08C226.872,296.4,224.362,293.258,221.328,293.7Z" transform="translate(-85.828 -97.152)" fill="#455a64"/>
    <path id="Path_223" data-name="Path 223" d="M221.328,293.7l-5.976,3.712a5.005,5.005,0,0,0-2.372,4.266v10.165c.878,1.8,4.482,1.848,6.161,1.171V302.238l5.344-3.08C226.872,296.4,224.362,293.258,221.328,293.7Z" transform="translate(-85.828 -97.152)" fill="#fff" opacity="0.3"/>
  </g>
</svg>
